<svg xmlns="http://www.w3.org/2000/svg" width="160" height="64" viewBox="0 0 160 64">
  <g id="info-empty" transform="translate(-3969 -437)">
    <rect id="矩形_72" data-name="矩形 72" width="160" height="64" transform="translate(3969 437)" fill="rgba(255,255,255,0)"/>
    <g id="info-location" transform="translate(210 -182)">
      <path id="路径_17" data-name="路径 17" d="M10.076-3.545a6.547,6.547,0,0,1-1.053,2.03A2.578,2.578,0,0,1,6.95-.881,4.181,4.181,0,0,1,5.307-1.1c-.419-.183-.516-.58-.516-1.568V-10.5c0-1.7.183-1.826,1.762-1.934v-.752H.773v.752c1.558.107,1.762.236,1.762,1.934v7.81c0,1.676-.2,1.8-1.88,1.934V0h9.464c.172-.569.591-2.578.73-3.362Zm8.476-9.915a6.634,6.634,0,0,0-4.879,2A6.634,6.634,0,0,0,11.8-6.531a6.488,6.488,0,0,0,1.793,4.82,6.488,6.488,0,0,0,4.738,2C22,.29,25-2.331,25-6.735a6.408,6.408,0,0,0-1.767-4.743,6.408,6.408,0,0,0-4.657-1.982Zm-.376.849c2.353,0,4.157,2.342,4.157,6.435,0,3.738-1.654,5.586-3.631,5.586-2.6,0-4.265-2.836-4.265-6.4,0-3.523,1.687-5.618,3.717-5.618ZM38.414-3.7C37.4-1.654,36.33-.634,34.568-.634c-2.729,0-4.77-2.492-4.77-6.187,0-3.04,1.665-5.758,4.619-5.758,1.783,0,3.029.741,3.652,3.008l.763-.15c-.107-1.235-.236-2.116-.419-3.233A14.233,14.233,0,0,0,34.9-13.48c-4.576,0-7.745,2.836-7.745,7.079C27.156-3.169,29.315.29,34.4.29a20.269,20.269,0,0,0,3.7-.5c.322-.73.816-2.224,1.1-3.169ZM53.228,0V-.752c-1.321-.15-1.59-.344-2.2-2.084-1.278-3.416-2.578-7.219-3.8-10.646l-.945.236L42.228-2.793C41.562-1.074,41.3-.924,39.982-.752V0h4.512V-.752c-1.45-.172-1.547-.387-1.214-1.472.226-.816.483-1.536.73-2.181h4c.333.9.645,1.826.881,2.471.269.838.14,1.01-1.053,1.182V0ZM47.663-5.479h-3.33c.559-1.536,1.106-3.126,1.676-4.7h.064ZM64.313-9.9c-.064-1.246-.172-2.922-.193-3.8h-.548a1.114,1.114,0,0,1-1.063.526H54.678a1.047,1.047,0,0,1-1.1-.526h-.526c-.043,1.074-.161,2.492-.247,3.878H53.6a5.548,5.548,0,0,1,.709-1.923c.279-.365.655-.569,2.148-.569h.967v9.636c0,1.654-.172,1.8-1.934,1.934V0h6.23V-.752c-1.826-.129-2.009-.279-2.009-1.934v-9.636h1.128c1.257,0,1.622.129,1.977.526a4.426,4.426,0,0,1,.73,1.966ZM71.382,0V-.752c-1.536-.129-1.719-.236-1.719-1.934V-10.5c0-1.7.183-1.826,1.719-1.934v-.752H65.667v.752c1.536.107,1.74.236,1.74,1.934v7.81c0,1.676-.2,1.8-1.74,1.934V0Zm8.3-13.46a6.634,6.634,0,0,0-4.879,2,6.634,6.634,0,0,0-1.878,4.928A6.488,6.488,0,0,0,74.72-1.709a6.488,6.488,0,0,0,4.74,2c3.674,0,6.671-2.621,6.671-7.025a6.408,6.408,0,0,0-1.767-4.743,6.408,6.408,0,0,0-4.657-1.982Zm-.376.849c2.353,0,4.157,2.342,4.157,6.435,0,3.738-1.654,5.586-3.631,5.586-2.6,0-4.265-2.836-4.265-6.4,0-3.523,1.687-5.618,3.717-5.618Zm21.957-.569H96.325v.73c1.386.086,1.848.376,1.955,1.182a29.287,29.287,0,0,1,.15,3.33V-3.8h-.064l-7.7-9.378H87.237v.73a2.169,2.169,0,0,1,1.719.72c.365.483.387.73.387,2.1V-5.3a24.764,24.764,0,0,1-.172,3.33c-.086.859-.569,1.16-1.7,1.225V0h4.952V-.752C91.04-.816,90.6-1.117,90.514-2.02a29.277,29.277,0,0,1-.15-3.287v-4.705h.043L98.517.172h.956v-8.11a25.429,25.429,0,0,1,.15-3.352c.107-.806.548-1.1,1.644-1.16Z" transform="translate(3815 649)" fill="rgba(155,191,167,0)"/>
      <path id="路径_18" data-name="路径 18" d="M6.468-12.782A29.907,29.907,0,0,1,5.016-5.17,19.63,19.63,0,0,0,2.86-6.248c.594-1.892,1.232-4.312,1.76-6.534Zm.858-1.738-1.034,1.1H4.752c.352-1.606.682-3.1.88-4.18.638-.066.792-.264.88-.506l-2.75-.528c-.132,1.21-.484,3.168-.9,5.214H.7l.2.638H2.728c-.506,2.4-1.078,4.818-1.562,6.292a27.288,27.288,0,0,1,3.3,2.75A14.253,14.253,0,0,1,.55,1.562l.242.264A13.347,13.347,0,0,0,5.478-2.662,10.786,10.786,0,0,1,7.15-.374c1.474.968,3.15-1.166-.77-3.96a24.983,24.983,0,0,0,2-8.14c.484-.066.7-.132.858-.352ZM17.358-6.93H12.144L10.45-7.656c1.87-.99,3.586-2.068,4.466-2.552l-.088-.308c-1.144.308-2.266.594-3.234.792v-2.882h3.542a7.769,7.769,0,0,0,3.212,4.6ZM12.012-.176V-2.882h5.566V-.176ZM17.578-3.52H12.012V-6.292h5.566Zm-5.984-9.724V-16.17c.99-.022,2-.066,2.992-.132a17.35,17.35,0,0,0,.4,3.058Zm9.548,1.98-.242-.044a11.015,11.015,0,0,1-.682,1.738c-.154.264-.308.286-.594.154a5.44,5.44,0,0,1-2.618-3.19h3.586c.308,0,.506-.11.55-.352-.726-.682-1.958-1.606-1.958-1.606l-1.078,1.32h-1.3a11.91,11.91,0,0,1-.418-3.212c.99-.088,1.914-.2,2.684-.33a1.337,1.337,0,0,0,1.254.066L18.39-18.678a39.334,39.334,0,0,1-7.106,2L9.656-17.47v7.458c0,.418-.11.594-.77.946l.924,2a1.771,1.771,0,0,0,.308-.2V1.848H10.4c.792,0,1.606-.418,1.606-.616V.462h5.566V1.694h.308a2.781,2.781,0,0,0,1.65-.572V-5.962a1.638,1.638,0,0,0,.9-.44L18.37-7.986c.154.11.33.2.506.308.814.44,2,.726,2.486-.022.242-.4.088-.726-.374-1.3Zm21.142-3.718c-.132.66-.33,1.452-.484,1.98l.242.132a12.812,12.812,0,0,0,2.442-1.716,1.184,1.184,0,0,0,.836-.242l-2.046-1.936L42.152-15.62H35.794c1.364-.242,1.694-2.948-2.486-2.992l-.176.154a4.664,4.664,0,0,1,1.628,2.6,1.442,1.442,0,0,0,.616.242H28.16a8.684,8.684,0,0,0-.286-1.144l-.33.022a2.926,2.926,0,0,1-1.606,2.618,1.217,1.217,0,0,0-.77,1.474,1.243,1.243,0,0,0,.813.637,1.243,1.243,0,0,0,1.013-.2,3.074,3.074,0,0,0,1.232-2.772ZM31.438-8.162v-2h7.59v2Zm7.59-4.576V-10.8h-7.59v-1.936Zm.352,6.27a3.069,3.069,0,0,0,1.716-.55V-12.43a1.407,1.407,0,0,0,.814-.418L39.82-14.41l-.99,1.056H31.57l-2.156-.88V-6.38H29.7c.836,0,1.738-.44,1.738-.616v-.528h7.59v1.056ZM38.3-4.62a7.638,7.638,0,0,1-2.046,2.53c-1.3-.176-2.772-.308-4.444-.44.572-.638,1.21-1.364,1.782-2.09Zm3.476-.638H34.1c.286-.352.55-.7.77-.99.682.066.9-.132.99-.352l-2.64-.9c-.308.528-.9,1.364-1.562,2.244H25.124l.2.638h5.852A29.041,29.041,0,0,1,29.15-2.244h.022l-.022.022c1.98.33,3.85.726,5.544,1.166C32.384.176,29.172.9,25.014,1.452L25.1,1.8c5.434-.286,9.086-.924,11.66-2.288a29.24,29.24,0,0,1,5.544,2.2c2.024.858,4.466-1.87-3.74-3.432a9.887,9.887,0,0,0,2.222-2.9H44.68c.308,0,.528-.11.594-.352-.88-.77-2.266-1.8-2.266-1.8Zm11.924-5.9h2.662c.308,0,.528-.11.572-.352-.638-.748-1.8-1.914-1.8-1.914L54.1-11.792h-.4V-17.2c.572-.066.748-.286.814-.594L51.72-18.08v6.292H49.214l.176.638h2.332v7.436c-1.188.418-2.156.748-2.772.924L50.05-.3a.912.912,0,0,0,.484-.638c2.816-1.8,4.884-3.41,6.292-4.488l-.11-.242c-1.012.418-2.046.836-3.014,1.21ZM68.77-4.426h-.24A14.668,14.668,0,0,1,67.5-1.254a.881.881,0,0,1-.726.33,26.1,26.1,0,0,1-2.75.088h-3.1c-1.254,0-1.54-.242-1.54-.88v-8.8l2.376-.88v9.064h.374c.726,0,1.584-.44,1.584-.66v-9.13l2.706-.99c-.066,4.774-.22,6.666-.594,7.062-.132.154-.242.2-.55.2-.33,0-1.012-.044-1.43-.088v.352a1.877,1.877,0,0,1,1.1.594,2.252,2.252,0,0,1,.242,1.342,2.957,2.957,0,0,0,2.09-.726c.836-.77,1.056-2.6,1.122-8.426a1.349,1.349,0,0,0,.836-.352l-1.98-1.628-1.078,1.056H66.2l-.2.066-2.288.858v-4.8c.572-.088.748-.308.792-.616l-2.75-.286v6.424l-2.376.88v-4.64c.528-.088.748-.33.792-.616l-2.794-.33v6.314L54.56-9.416l.418.528,2.4-.88V-1.21c0,1.892.858,2.332,3.344,2.332H63.89c4.84,0,5.918-.352,5.918-1.386,0-.4-.22-.638-.968-.9ZM75.106-3A4.556,4.556,0,0,1,73.854-.11a1.158,1.158,0,0,0-.506,1.5,1.111,1.111,0,0,0,1.716.044c.66-.726.99-2.332.418-4.4Zm1.65-.132a9.587,9.587,0,0,1,.09,3.9c1.166,1.562,3.234-1.21.22-3.982Zm1.958-.418A7.577,7.577,0,0,1,79.772.022c1.342,1.342,3.014-1.606-.77-3.7Zm2.222-.55A6.424,6.424,0,0,1,82.412-.88C83.842.352,85.36-2.728,81.18-4.224ZM76.1-15.774a10.74,10.74,0,0,1,.594,3.52c.858.99,2.024-1.1-.264-3.608Zm3.366,4.73v-5.588h2.2v1.078l-1.408-.352c-.066.924-.308,2.706-.528,3.894l.308.088c.506-1.034,1.034-2.288,1.32-3.036a1.3,1.3,0,0,0,.306-.04v3.96Zm-3.52-5.588h2.09v5.588h-2.09Zm5.522-.616H76.054l-1.8-.77V-9.2h.264c.7,0,1.43-.4,1.43-.55v-.682h1.87V-8.25H73.942l.176.616h3.7v1.958c-1.914.132-3.52.242-4.444.264l.836,2.266a.87.87,0,0,0,.572-.484c4.07-.9,6.93-1.628,8.976-2.2l-.044-.352c-1.364.132-2.75.242-4.026.352v-1.8h3.63c.286,0,.506-.11.55-.33-.7-.66-1.848-1.54-1.848-1.54L81-8.25H79.68v-2.178h1.98v.792h.286a2.417,2.417,0,0,0,1.452-.506v-6.226a1.425,1.425,0,0,0,.814-.418L82.32-18.194ZM90.95-7.282V-.66H86.174V-7.282Zm2.42-5.038c.308,0,.528-.11.594-.352C93.216-13.42,91.94-14.5,91.94-14.5l-1.1,1.54H89.276V-17.49c.55-.088.748-.308.792-.638l-2.794-.264V-7.9h-.858l-2.134-.858V1.782h.33c.968,0,1.562-.352,1.562-.506v-1.3h4.774v1.65h.33a2.239,2.239,0,0,0,1.628-.506V-7.13a1.3,1.3,0,0,0,.836-.418L91.828-9,90.86-7.9H89.276v-4.42Z" transform="translate(3810 664)" fill="rgba(7,42,46,0)"/>
    </g>
  </g>
</svg>
