<svg xmlns="http://www.w3.org/2000/svg" width="239.13" height="48.054" viewBox="0 0 239.13 48.054">
  <g id="info-date2" transform="translate(-3910.56 -529.322)">
    <path id="路径_17" data-name="路径 17" d="M3.1-2.706c1.012-.9,2.024-1.738,2.728-2.31C9.9-8.228,11.946-9.944,11.946-12.3c0-2.618-1.606-4.51-5.082-4.51-2.948,0-5.434,1.408-5.632,3.938a1.558,1.558,0,0,0,1.43.9c.682,0,1.408-.352,1.65-1.826L4.8-15.972a3.729,3.729,0,0,1,.836-.088c1.694,0,2.728,1.364,2.728,3.542,0,2.376-1.078,3.828-3.476,6.534-1.078,1.232-2.31,2.618-3.586,4V0H12.32V-2.706ZM18.788-8.25c0-6.16,1.078-7.788,2.376-7.788s2.42,1.65,2.42,7.788c0,6.182-1.122,7.854-2.42,7.854S18.788-2.046,18.788-8.25Zm2.376-8.558c-3.058,0-5.72,2.6-5.72,8.558,0,6.006,2.662,8.624,5.72,8.624,3.036,0,5.742-2.618,5.742-8.624C26.906-14.212,24.2-16.808,21.164-16.808Zm10.89,14.1c1.012-.9,2.024-1.738,2.728-2.31C38.852-8.228,40.9-9.944,40.9-12.3c0-2.618-1.606-4.51-5.082-4.51-2.948,0-5.434,1.408-5.632,3.938a1.558,1.558,0,0,0,1.43.9c.682,0,1.408-.352,1.65-1.826l.484-2.178a3.729,3.729,0,0,1,.836-.088c1.694,0,2.728,1.364,2.728,3.542,0,2.376-1.078,3.828-3.476,6.534-1.078,1.232-2.31,2.618-3.586,4V0H41.272V-2.706ZM52.14-1.078c-.022-1.386-.044-2.794-.044-4.136v-7.678l.088-3.586-.33-.22-5.962,1.342v.814l2.6-.242v9.57c0,1.342-.022,2.75-.044,4.136l-3.146.4V0h9.79V-.682Zm9.5,1.43a2,2,0,0,0,2.024-1.98,2.028,2.028,0,0,0-2.024-2,2.028,2.028,0,0,0-2.024,2A2,2,0,0,0,61.644.352ZM75.2-1.078c-.022-1.386-.044-2.794-.044-4.136v-7.678l.088-3.586-.33-.22-5.962,1.342v.814l2.6-.242v9.57c0,1.342-.022,2.75-.044,4.136l-3.146.4V0h9.79V-.682Zm14.476,0c-.022-1.386-.044-2.794-.044-4.136v-7.678l.088-3.586-.33-.22-5.962,1.342v.814l2.6-.242v9.57c0,1.342-.022,2.75-.044,4.136l-3.146.4V0h9.79V-.682Zm9.5,1.43a2,2,0,0,0,2.024-1.98,2.028,2.028,0,0,0-2.024-2,2.028,2.028,0,0,0-2.024,2A2,2,0,0,0,99.176.352ZM110.924-.4c-1.5,0-2.53-2.024-2.53-6.688,0-.33.022-.638.044-.946a3.275,3.275,0,0,1,2.288-.792c1.54,0,2.332,1.386,2.332,4.092C113.058-1.65,112.134-.4,110.924-.4ZM115.5-16.808c-6.314.572-10.692,4.928-10.692,10.208,0,4.378,2.376,6.974,6.116,6.974a5.25,5.25,0,0,0,5.654-5.5c0-2.926-1.65-4.972-4.488-4.972a5.159,5.159,0,0,0-3.586,1.32c.55-3.806,3.014-6.512,7.128-7.48ZM129.558-6.93a15.185,15.185,0,0,1,3.718-10.736l-.506-.484c-3.784,3.08-5.852,6.512-5.852,11.22s2.068,8.1,5.852,11.22l.506-.484A15.775,15.775,0,0,1,129.558-6.93Zm6.468-5.984.176.616h19.91c.33,0,.594-.11.66-.352-1.232-1.144-3.366-2.9-3.366-2.9l-1.914,2.64ZM143-18.678l-.11.11a6.76,6.76,0,0,1,2.178,4.642C148.566-11.286,151.734-18.392,143-18.678Zm-1.452,7.964c-.88,4.268-3.124,9.394-5.676,12.1l.11.132A22.463,22.463,0,0,0,145.464-8.8c.66.088.836-.022.946-.286Zm6.886.286-.242.132a29.423,29.423,0,0,1,5.126,10.8C157.168,3.7,159.632-4.972,148.434-10.428Zm14.652,3.5a15.185,15.185,0,0,1-3.718,10.736l.506.484c3.784-3.058,5.852-6.512,5.852-11.22s-2.068-8.1-5.852-11.22l-.506.484A15.775,15.775,0,0,1,163.086-6.93Zm20.878,5.852c-.022-1.386-.044-2.794-.044-4.136v-7.678l.088-3.586-.33-.22-5.962,1.342v.814l2.6-.242v9.57c0,1.342-.022,2.75-.044,4.136l-3.146.4V0h9.79V-.682Zm8.866-1.628c1.012-.9,2.024-1.738,2.728-2.31,4.07-3.212,6.116-4.928,6.116-7.282,0-2.618-1.606-4.51-5.082-4.51-2.948,0-5.434,1.408-5.632,3.938a1.558,1.558,0,0,0,1.43.9c.682,0,1.408-.352,1.65-1.826l.484-2.178a3.728,3.728,0,0,1,.836-.088c1.694,0,2.728,1.364,2.728,3.542,0,2.376-1.078,3.828-3.476,6.534-1.078,1.232-2.31,2.618-3.586,4V0h11.022V-2.706ZM207.944-8.47a2,2,0,0,0,2.024-1.98,2.014,2.014,0,0,0-2.024-2,2.014,2.014,0,0,0-2.024,2A2,2,0,0,0,207.944-8.47Zm0,8.822a2,2,0,0,0,2.024-1.98,2.028,2.028,0,0,0-2.024-2,2.028,2.028,0,0,0-2.024,2A2,2,0,0,0,207.944.352Zm9.152-8.6c0-6.16,1.078-7.788,2.376-7.788s2.42,1.65,2.42,7.788c0,6.182-1.122,7.854-2.42,7.854S217.1-2.046,217.1-8.25Zm2.376-8.558c-3.058,0-5.72,2.6-5.72,8.558,0,6.006,2.662,8.624,5.72,8.624,3.036,0,5.742-2.618,5.742-8.624C225.214-14.212,222.508-16.808,219.472-16.808Zm12.1,8.558c0-6.16,1.078-7.788,2.376-7.788s2.42,1.65,2.42,7.788c0,6.182-1.122,7.854-2.42,7.854S231.572-2.046,231.572-8.25Zm2.376-8.558c-3.058,0-5.72,2.6-5.72,8.558,0,6.006,2.662,8.624,5.72,8.624,3.036,0,5.742-2.618,5.742-8.624C239.69-14.212,236.984-16.808,233.948-16.808Z" transform="translate(3910 548)" fill="#072a2e"/>
    <path id="路径_18" data-name="路径 18" d="M6.224-13.36A6.347,6.347,0,0,1,8.1-10.5c1.584,1.072,2.768-2.144-1.728-2.976Zm4.592,3.888A12.544,12.544,0,0,1,8.064-3.6,11.723,11.723,0,0,1,4.32-9.472Zm4.08,0c.24,0,.4-.08.448-.256-.672-.624-1.792-1.5-1.792-1.5L12.544-9.92H.688l.128.448H4a14.523,14.523,0,0,0,3.232,6.8A17.127,17.127,0,0,1,.56,1.152l.112.224A18.279,18.279,0,0,0,8.048-1.84a14.744,14.744,0,0,0,5.808,3.2A1.92,1.92,0,0,1,15.488.032l.048-.192A17.987,17.987,0,0,1,9.12-2.8,13.38,13.38,0,0,0,12.7-9.472Zm9.312-3.936a3.553,3.553,0,0,1,1.152,2.192c1.552,1.152,3.008-1.952-1.008-2.3Zm2.144,9.152h4.416c.24,0,.4-.08.432-.256-.592-.56-1.6-1.328-1.6-1.328l-.88,1.12H26.352V-7.712h4.48c.224,0,.4-.08.448-.256-.24-.208-.544-.432-.816-.64a9.863,9.863,0,0,0,1.952-1.5c.336-.032.5-.048.64-.176L31.5-11.776l-.864.9h-10.1a4.98,4.98,0,0,0-.24-.9H20.08A2.264,2.264,0,0,1,18.9-9.808a1,1,0,0,0-.656,1.2.986.986,0,0,0,1.472.384,2.29,2.29,0,0,0,.9-2.192H30.72c-.128.528-.32,1.184-.464,1.648-.352-.272-.608-.464-.608-.464l-.9,1.056H20.176l.128.464h4.528v6.8a4.353,4.353,0,0,1-2.7-2.24,13.671,13.671,0,0,0,.64-2.192c.368-.016.56-.144.608-.384l-2.128-.4c-.224,2.48-1.056,5.424-3.184,7.312l.16.176A8.664,8.664,0,0,0,21.936-2.7C23.152.3,25.216,1.008,28.912,1.008H32.24a1.234,1.234,0,0,1,.848-1.3V-.5c-1.04.032-3.168.032-4.08.032a22.031,22.031,0,0,1-2.656-.128ZM38.544-13.5a31.134,31.134,0,0,1-2.976,8.176l.208.144A15.163,15.163,0,0,0,37.456-7.2V1.36h.272A1.665,1.665,0,0,0,38.864.944V-8.512a.588.588,0,0,0,.5-.3L38.608-9.1A25.445,25.445,0,0,0,40.1-12.512c.368,0,.56-.128.624-.32Zm4.944,9.056V-5.936c.352-.064.688-.144.976-.208.384.16.672.16.832.032l-1.184-1.12H45.52a21.946,21.946,0,0,0,.192,2.784Zm6.784.464c.224,0,.384-.08.432-.256-.384-.336-.9-.768-1.184-1.008.528-.384.384-1.5-1.824-1.648l-.144.128A2.971,2.971,0,0,1,48.624-5.3a.955.955,0,0,0,.432.16l-.544.688H47.088a19.742,19.742,0,0,1-.128-2.208c.336-.064.48-.24.512-.432l-1.76-.144H50.16c.224,0,.384-.08.432-.256-.608-.544-1.6-1.3-1.6-1.3L48.112-7.7H45.584V-9.04h3.648c.224,0,.384-.08.432-.256-.576-.528-1.5-1.216-1.5-1.216L47.36-9.5H45.584v-1.312h4.352a.383.383,0,0,0,.416-.256C49.76-11.6,48.8-12.336,48.8-12.336l-.864,1.056H45.952a9.978,9.978,0,0,0,1.728-1.344.53.53,0,0,0,.592-.288l-2.08-.608a13.69,13.69,0,0,1-.624,2.24h-1.84c.64-.4.608-1.776-1.824-2.192l-.16.1a4.194,4.194,0,0,1,1.008,1.984,1.076,1.076,0,0,0,.176.112h-2.88l.128.464h3.9V-9.5H40.768l.128.464H44.08V-7.7H39.744l.128.464H43.84A22.328,22.328,0,0,1,39.824-5.76l.08.256c.7-.032,1.472-.112,2.192-.208v1.264H39.52l.128.464H42.1v1.3c-1.088.144-2,.24-2.528.288L40.1-.928a.585.585,0,0,0,.416-.336c.56-.176,1.088-.336,1.584-.5V-.416c0,.176-.048.272-.3.272-.288,0-1.6-.1-1.6-.1V0A1.942,1.942,0,0,1,41.36.432a1.457,1.457,0,0,1,.272.928c1.632-.16,1.856-.768,1.856-1.744v-1.84c.752-.256,1.392-.48,1.936-.672l-.032-.24c-.64.1-1.3.176-1.9.272v-1.12h2.288a8.726,8.726,0,0,0,.8,2.608A13.189,13.189,0,0,1,43.856.816l.144.24A12.575,12.575,0,0,0,47.04-.592,5.812,5.812,0,0,0,48.608.9c.592.368,1.52.7,1.936.128.144-.24.1-.512-.336-1.072l.176-1.84-.176-.032A10.349,10.349,0,0,1,49.632-.5c-.112.208-.208.208-.4.1a3.421,3.421,0,0,1-1.12-1.072A10.824,10.824,0,0,0,49.3-2.7c.352.112.528.048.64-.112L48.48-3.808a12.53,12.53,0,0,1-.912,1.3,7.912,7.912,0,0,1-.4-1.472ZM58.48-6.208h2.7c.224,0,.384-.08.432-.256C60.992-7.024,60-7.808,60-7.808l-.9,1.136h-5.04l.128.464h2.752v4.88c-1.44.3-2.608.528-3.312.64L54.64,1.024a.636.636,0,0,0,.384-.4c3.232-1.2,5.44-2.112,7.008-2.832l-.064-.24c-1.2.272-2.384.544-3.488.784ZM68-3.056l-.192-.032a14.12,14.12,0,0,1-.848,1.92c-.16.272-.272.288-.512.048-2.224-1.7-3.056-4.848-3.3-8.352h4.592c.24,0,.416-.08.448-.256-.528-.448-1.328-1.056-1.632-1.28.592-.5.272-1.952-2.512-1.984l-.144.144a5.315,5.315,0,0,1,1.744,1.888.956.956,0,0,0,.608.1l-.768.928H63.12c-.048-.928-.064-1.856-.048-2.8.4-.064.544-.256.576-.464l-2.192-.224c0,1.2.032,2.368.112,3.488h-8.1l.128.464h8c.336,4.144,1.36,7.664,3.952,9.888.72.64,1.9,1.216,2.5.592.224-.224.144-.64-.384-1.456ZM81.632-.832c-.016-.976-.032-1.936-.032-2.88V-9.248l.048-2.544-.224-.176-3.776.928v.608l2.24-.208v6.928c0,.944-.016,1.92-.032,2.88l-2.464.32V0h6.624V-.512Zm7.536-5.136c0-4.288.96-5.424,2.048-5.424,1.04,0,2.016,1.152,2.016,5.424,0,4.4-.976,5.568-2.016,5.568C90.128-.4,89.168-1.552,89.168-5.968Zm2.048-6.048c-1.968,0-3.808,1.7-3.808,6.048,0,4.5,1.84,6.208,3.808,6.208,1.936,0,3.776-1.712,3.776-6.208C94.992-10.32,93.152-12.016,91.216-12.016Zm8.752,5.76A1.219,1.219,0,0,0,101.2-7.472,1.226,1.226,0,0,0,99.968-8.72,1.239,1.239,0,0,0,98.72-7.472,1.233,1.233,0,0,0,99.968-6.256Zm0,6.48A1.219,1.219,0,0,0,101.2-.992a1.222,1.222,0,0,0-1.232-1.232A1.236,1.236,0,0,0,98.72-.992,1.233,1.233,0,0,0,99.968.224Zm7.52-11.536a3.743,3.743,0,0,1,.8-.1,2.014,2.014,0,0,1,2.128,2.3,2.319,2.319,0,0,1-2.528,2.544h-.656v.7h.784A2.462,2.462,0,0,1,110.7-3.1a2.472,2.472,0,0,1-2.64,2.7,3.771,3.771,0,0,1-.928-.112L106.848-1.7c-.208-.864-.448-1.184-.992-1.184a.866.866,0,0,0-.864.592C105.248-.576,106.544.24,108.464.24c2.432,0,4.016-1.392,4.016-3.312,0-1.6-.88-2.8-2.928-3.168a3.045,3.045,0,0,0,2.576-2.928c0-1.712-1.248-2.88-3.408-2.88-1.68,0-3.136.752-3.376,2.384a.845.845,0,0,0,.832.56c.544,0,.848-.32,1.008-1.024Zm9.824,5.344c0-4.288.96-5.424,2.048-5.424,1.04,0,2.016,1.152,2.016,5.424,0,4.4-.976,5.568-2.016,5.568C118.272-.4,117.312-1.552,117.312-5.968Zm2.048-6.048c-1.968,0-3.808,1.7-3.808,6.048,0,4.5,1.84,6.208,3.808,6.208,1.936,0,3.776-1.712,3.776-6.208C123.136-10.32,121.3-12.016,119.36-12.016Zm17.392.128v1.472H134v-1.472ZM134-8.448v-1.52h2.752v1.52Zm2.752.464v.72h.224a1.841,1.841,0,0,0,1.184-.448V-11.7a1.021,1.021,0,0,0,.592-.288l-1.472-1.1-.672.736H134.08l-1.552-.688V1.36h.256c.688,0,1.216-.368,1.216-.56V-7.984Zm1.424,4.368c.016-.192.016-.368.016-.544V-5.9h1.7v2.288Zm4.944.448c.224,0,.384-.08.432-.256-.512-.5-1.344-1.184-1.344-1.184l-.736.992h-.256V-5.9h1.616c.224,0,.384-.08.416-.256-.528-.512-1.392-1.2-1.392-1.2l-.768.992H135.1l.128.464H136.9V-4.16c0,.176,0,.368-.016.544h-2.128l.128.448h1.984A5.007,5.007,0,0,1,134.912.576l.16.192a4.65,4.65,0,0,0,3.056-3.936h1.76V.624h.24a1.417,1.417,0,0,0,1.088-.336V-3.168Zm-1.808-5.28v-1.52h2.864v1.52Zm2.864-3.44v1.472h-2.864v-1.472Zm.544-1.312-.7.848h-2.64l-1.488-.624V-7.36h.208c.592,0,1.216-.32,1.216-.448v-.176h2.864V-.672c0,.208-.064.3-.32.3s-1.5-.08-1.5-.08v.224a1.736,1.736,0,0,1,1.12.528,1.948,1.948,0,0,1,.272,1.056c1.712-.176,1.92-.784,1.92-1.872v-11.12a1.316,1.316,0,0,0,.672-.336Zm9.312,3.92a20.591,20.591,0,0,1-1.184,5.664q-.768-.384-1.776-.816c.48-1.392.992-3.184,1.44-4.848Zm.64-1.3-.784.832h-1.264c.3-1.168.56-2.256.72-3.04.464-.032.576-.192.64-.368l-2.016-.4c-.128.88-.416,2.3-.768,3.808h-1.984l.144.464h1.728c-.416,1.792-.928,3.6-1.312,4.72a19.51,19.51,0,0,1,2.592,2,9.83,9.83,0,0,1-3.232,3.68l.16.208a9.9,9.9,0,0,0,3.84-3.136A8.777,8.777,0,0,1,154.464-.08c1.12.7,2.4-.9-.608-2.912a17.019,17.019,0,0,0,1.616-6.048c.352-.048.5-.1.608-.256ZM157.984-.56V-4.672h3.808V-.56Zm3.744-4.576H158.16l-1.568-.624V1.28h.24c.7,0,1.152-.272,1.152-.368V-.112h3.808V1.1h.24a1.675,1.675,0,0,0,1.2-.352V-4.576a.878.878,0,0,0,.624-.288l-1.424-1.088ZM160.7-10.56a10.486,10.486,0,0,1,1.648,2.384c-2.128.1-4.144.176-5.44.192a21.591,21.591,0,0,0,3.7-4.432.587.587,0,0,0,.592-.3l-2.224-.752a16.357,16.357,0,0,1-2.768,5.264,1.46,1.46,0,0,1-.5.208l.72,1.776a.913.913,0,0,0,.368-.3c2.32-.448,4.336-.912,5.712-1.264a4.9,4.9,0,0,1,.336,1.184c1.52,1.184,2.72-2.192-1.968-4.064Z" transform="translate(3910 576)" fill="#072a2e"/>
  </g>
</svg>
