<svg xmlns="http://www.w3.org/2000/svg" width="291.06" height="48.862" viewBox="0 0 291.06 48.862">
  <g id="info-location2" transform="translate(-4089.528 129.47)">
    <path id="路径_17" data-name="路径 17" d="M20.746-11.462c.33,0,.594-.11.66-.352-1.232-1.034-3.278-2.574-3.278-2.574L16.3-12.078H12.056c.154-1.782.176-3.652.22-5.588.528-.088.748-.286.814-.638l-4.378-.4c0,2.332.022,4.532-.11,6.622H.726l.176.616H8.558C8.118-6.4,6.512-2.024.528,1.826L.7,2.112C8.932-.9,11.2-5.346,11.9-10.648c.572,4.4,2.156,9.79,6.776,12.76a3.421,3.421,0,0,1,2.838-3.234l.022-.264c-5.94-2.2-8.624-6.05-9.372-10.076Zm16.588-.088H34.606c1.606-.44,2.156-3.124-2.376-3.366A13.558,13.558,0,0,0,34.65-17.6a10.524,10.524,0,0,0,3.872,4.8Zm-7.15,4.488a10.932,10.932,0,0,0,.11-1.65h7.238v1.65Zm.11-3.872h7.238v1.606H30.294Zm.418-.616-2.178-.77a21.919,21.919,0,0,0,3.432-2.354,5.172,5.172,0,0,1,.924,2.706,2.056,2.056,0,0,0,.814.418Zm7.524,7.744V-.264h-6.38V-3.806ZM31.724-19.47c-.792,2.86-4.554,6.952-8.382,9.108l.11.22a24.342,24.342,0,0,0,4.114-1.65v2.816c0,3.058-.4,6.842-3.432,9.834l.154.176a10.053,10.053,0,0,0,4.73-4.224V2h.506c1.452,0,2.332-.44,2.332-.638V.352h6.38V1.584h.528a3.812,3.812,0,0,0,2.442-.572V-3.63c.506-.088.7-.22.836-.418L39.512-5.94,38.148-4.422H32.076l-2.222-.836a11.5,11.5,0,0,0,.264-1.188h7.414v.55h.484a3.96,3.96,0,0,0,2.31-.77V-10.6a1.231,1.231,0,0,0,.7-.374l-1.848-1.364a16.229,16.229,0,0,0,2.772,1.364,3.617,3.617,0,0,1,2.222-2.97v-.33c-3.08-.4-7.194-1.32-9.2-3.564.77-.088,1.056-.22,1.122-.528Zm27.72,2.86-1.76,1.826H54.956c.308-.748.616-1.562.88-2.42.528,0,.814-.2.9-.484l-4.51-1.188a26.133,26.133,0,0,1-5.3,12.782l.2.176a16.772,16.772,0,0,0,7.568-8.25h3.19C56.716-7.282,53.328-1.386,46.552,1.914l.154.22C54.428.154,58.212-4.026,60.214-9.218c.462,4.4,1.672,8.976,4.972,11.286.22-1.914,1.144-3.036,2.75-3.388v-.286A10.8,10.8,0,0,1,60.544-10.1a27.732,27.732,0,0,0,.924-3.344c.594-.066.814-.154.99-.44ZM84.018-2.86V-14.5H86.24V-2.86ZM77.044-11.4v-4.07c.836-.11,1.606-.242,2.266-.4a1.863,1.863,0,0,0,1.584.044v4.6c-.924-.924-2.442-2.266-2.442-2.266ZM87.45-16.7l-1.43,1.584H84.128l-3.234-1.3v.528l-3.19-2.97A34.769,34.769,0,0,1,70.18-15.2l.044.242c1.21-.022,2.486-.088,3.74-.176v3.74H70.092l.176.616H73.3a24.812,24.812,0,0,1-3.63,9.152l.22.22a18.314,18.314,0,0,0,4.07-4.07V2.09h.572a3.23,3.23,0,0,0,2.508-.858V-8.536a7.694,7.694,0,0,1,.88,3.212c2.288,1.958,4.928-2.464-.88-3.894V-10.78h3.322a.643.643,0,0,0,.528-.176V.484H81.4c1.364,0,2.618-.748,2.618-1.1V-2.244H86.24v2.4h.528a4.593,4.593,0,0,0,2.662-.88V-13.992a1.423,1.423,0,0,0,.858-.484Zm25.7,5.236c.33,0,.594-.11.66-.352-1.232-1.034-3.278-2.574-3.278-2.574l-1.826,2.31h-4.246c.154-1.782.176-3.652.22-5.588.528-.088.748-.286.814-.638l-4.378-.4c0,2.332.022,4.532-.11,6.622H93.126l.176.616h7.656c-.44,5.06-2.046,9.438-8.03,13.288l.176.286C101.332-.9,103.6-5.346,104.3-10.648c.572,4.4,2.156,9.79,6.776,12.76a3.421,3.421,0,0,1,2.838-3.234l.022-.264c-5.94-2.2-8.624-6.05-9.372-10.076Zm19.646.726a22.832,22.832,0,0,1-1.034,4.664A13.417,13.417,0,0,1,130-10.736ZM120.1-8.888V-11h2.486v2.112Zm0,2.574V-8.272h2.486v1.958Zm14.058-6.666-1.562,1.628h-3.058v-4a34.832,34.832,0,0,0,6.072-.572c.484.154.792.132,1.012-.088l-2.552-2.838c-1.584.9-3.366,1.936-4.84,2.662l-2.552-.88v6.05a29.667,29.667,0,0,1-1.1,9.13c-.176-.968-1.166-2.09-3.5-2.794l-.2.11a11.7,11.7,0,0,1,.726,1.826c-.858.286-1.716.55-2.508.814V-5.7h2.486v.792h.506a4.93,4.93,0,0,0,2.354-.66v-5.06a1.052,1.052,0,0,0,.682-.374l-2.508-1.87-1.232,1.3h-2.2l-2.354-.9a20.288,20.288,0,0,0,2.134-2.222,4.8,4.8,0,0,1,.264,2.244c2,1.958,4.884-1.694.2-2.838a16.869,16.869,0,0,0,1.342-2.134,10.994,10.994,0,0,1,1.188,3.344c1.98,2.112,5.918-1.936-.9-3.916.616-.11.814-.286.858-.572l-4.62-.33a25.08,25.08,0,0,1-2.354,7.7l.132.11c.418-.286.814-.572,1.21-.9v9.9c0,.528-.11.77-.836,1.232l1.584,2.9a1.99,1.99,0,0,0,.858-.968c1.584-1.232,2.948-2.4,3.872-3.234a6.9,6.9,0,0,1,.22,1.628,1.546,1.546,0,0,0,1.936.33,11.248,11.248,0,0,1-.968,1.738l.2.154c4.906-3.256,5.368-8.536,5.39-12.43h.044a33.14,33.14,0,0,0,1.254,6.952,13.621,13.621,0,0,1-5.1,5.7l.154.22a15.241,15.241,0,0,0,5.94-3.542,10.722,10.722,0,0,0,2.662,3.344,4.464,4.464,0,0,1,2.75-3.432l.022-.33a12.2,12.2,0,0,1-3.542-2,18.515,18.515,0,0,0,2.31-6.358c.506-.088.726-.176.858-.418Zm20.262,7.524V-.792H147.95V-5.456Zm.44-4.906h-2.09V-13.09c.616-.11.748-.33.792-.638l-3.982-.308v7.964H148.17L144.98-7.26V2.112h.55c1.518,0,2.42-.484,2.42-.66V-.176h6.468V1.936h.55A3.754,3.754,0,0,0,157.52,1.3V-5.236c.506-.11.726-.242.858-.44l-2.64-2-1.43,1.606h-1.54V-9.746h5.94c.33,0,.572-.11.638-.352-1.056-.99-2.882-2.486-2.882-2.486Zm1.012-4.554h-3.938c1.408-.946,1.21-3.828-3.96-3.916l-.132.11a8.388,8.388,0,0,1,1.848,3.7l.176.11h-5.148l-3.652-1.232v6.82c0,3.784-.088,8.03-1.98,11.352l.176.132c4.73-3.014,4.994-7.81,4.994-11.484V-14.3h15.224c.308,0,.55-.11.616-.352-.99-.946-2.706-2.354-2.706-2.354Zm27.258,3.542v4.8h-7.766v-4.8ZM175.362-.7V-5.962h7.766V-.7Zm8.976-15.862h-15.07l.176.616h7.546c-.022,1.3-.11,2.86-.242,3.96H175.56l-3.432-1.342V1.914h.506c1.386,0,2.728-.748,2.728-1.122v-.88h7.766V1.8h.55a5.033,5.033,0,0,0,2.75-.858V-10.868a1.351,1.351,0,0,0,.858-.462l-2.9-2.288-1.474,1.628h-5.17a20.758,20.758,0,0,0,3.19-3.96h7.634c.33,0,.572-.11.638-.352-1.188-.99-3.146-2.4-3.146-2.4Zm27.632,6.512c.33,0,.594-.11.66-.352-1.188-.99-3.168-2.442-3.168-2.442l-1.738,2.178H203.83v-4.29c1.892-.242,3.652-.528,5.1-.858.858.308,1.386.264,1.672.022l-3.212-3.014a57.313,57.313,0,0,1-14.014,4.136l.044.286c2.31.022,4.774-.066,7.15-.264v3.982h-8.426l.176.616h6.71A23.834,23.834,0,0,1,191.708.264l.176.2a21.981,21.981,0,0,0,8.69-6.534V2.134h.616c1.672,0,2.618-.66,2.64-.858v-11.33c1.122,4.8,2.992,7.964,6.446,9.966a3.972,3.972,0,0,1,2.75-3.1l.066-.264c-3.5-.968-7.084-3.234-8.866-6.6Zm20.284,2.068v-2.838h.616v2.838Zm-3.982-2.838h.594v2.838h-.594Zm2.64,0v2.838h-.66v-2.838ZM225.654-6.2l.176.616h9.658c.308,0,.528-.11.572-.352-.484-.44-1.188-.99-1.65-1.342a1.8,1.8,0,0,0,.836-.374v-2.882a1.057,1.057,0,0,0,.7-.374l-2.222-1.65-1.056,1.122h-1.034l.242-1.474h3.344c.308,0,.528-.11.594-.352-.792-.77-2.112-1.87-2.112-1.87L232.54-13.53h-.55l.132-.77c.484-.066.77-.286.836-.638l-3.432-.44c-.044.572-.088,1.21-.154,1.848h-3.564l.176.616h3.322c-.044.55-.11,1.056-.154,1.474h-.77l-2.178-.88V-6.6h.286c.858,0,1.782-.462,1.782-.638V-7.37h4.6v.286h.418a.748.748,0,0,0,.22-.022l-.7.9Zm-3.938,2.6V-5.126H223.1v1.958c-.462-.462-1.012-.946-1.012-.946Zm-2.794-2.134c.066-.506.11-1.012.154-1.5l.154.506H223.1v.814c-.4-.4-.814-.748-.814-.748l-.682.924Zm6.138-9.724-.77,1.056h-5.148v-1.056ZM223.1-12.012h-1.034v-1.782H223.1Zm-1.034,3.08H223.1v1.584h-1.034Zm1.034-.616h-1.034V-11.4H223.1Zm-3.96-4.246h.77v6.446h-.836c.066-.968.066-1.914.066-2.794Zm7.392,9.482a2.294,2.294,0,0,1-.528,2.046,1.563,1.563,0,0,0-.506.418V-13.794h1.342a.526.526,0,0,0,.572-.352c-.44-.418-1.034-.946-1.452-1.32h9.394c.33,0,.55-.11.616-.352-.946-.9-2.6-2.266-2.6-2.266l-1.452,2h-4.356c1.012-.9.66-3.036-3.432-2.75l-.154.132a5.735,5.735,0,0,1,1.518,2.618h-5.94l-3.19-1.1v7.04c0,3.96-.022,8.47-1.584,12.012l.242.154a11.509,11.509,0,0,0,3.85-7.48l.088.33h.946v1.914H218.7l.176.616h1.034v1.3c-.836.088-1.518.132-1.958.154l1.012,2.618a.8.8,0,0,0,.594-.506c1.628-1.012,2.816-1.8,3.542-2.332l-.022-.264-1.364.154V-2.6h1.078a.7.7,0,0,0,.308-.066V1.782h.44c1.232,0,1.958-.484,1.958-.638V-.418a1.136,1.136,0,0,0,1.474.066c.66-.572.814-2.068-.11-3.96ZM233.4-2.288h-.242a6.532,6.532,0,0,1-.682,1.562.53.53,0,0,1-.4.154H230.3c-.374,0-.418-.066-.418-.286v-3.19a.728.728,0,0,0,.572-.352,5.375,5.375,0,0,1,.154,1.958c1.584,1.672,4.07-1.474-.264-3.014l-.242.11a5.547,5.547,0,0,1,.286.726l-2.662-.22V-.308c0,1.364.242,1.8,1.936,1.8H231c2.376,0,3.168-.462,3.168-1.32,0-.418-.132-.66-.682-.88Zm-.66-2.288a8.474,8.474,0,0,1,1.188,3.5c1.826,1.584,3.894-2.046-.968-3.608ZM248.6-6.93a15.185,15.185,0,0,1,3.718-10.736l-.506-.484c-3.784,3.08-5.852,6.512-5.852,11.22s2.068,8.1,5.852,11.22l.506-.484A15.775,15.775,0,0,1,248.6-6.93Zm8.866,4.224c1.012-.9,2.024-1.738,2.728-2.31,4.07-3.212,6.116-4.928,6.116-7.282,0-2.618-1.606-4.51-5.082-4.51-2.948,0-5.434,1.408-5.632,3.938a1.558,1.558,0,0,0,1.43.9c.682,0,1.408-.352,1.65-1.826l.484-2.178A3.728,3.728,0,0,1,260-16.06c1.694,0,2.728,1.364,2.728,3.542,0,2.376-1.078,3.828-3.476,6.534-1.078,1.232-2.31,2.618-3.586,4V0h11.022V-2.706ZM282.5-16.434h-12.76v.748l1.98.176c.066,2.266.066,4.532.066,6.82v.968c0,2.288,0,4.554-.066,6.776l-1.98.2V0H277.9V-.748L275.55-.99c-.044-2.244-.044-4.532-.044-6.93v-.066h3.036l.308,2.442h1.1V-11.22h-1.1l-.33,2.442h-3.014c0-2.332,0-4.6.044-6.8h4.642l1.012,3.52h1.254Zm6.446,9.5A15.185,15.185,0,0,1,285.23,3.806l.506.484c3.784-3.058,5.852-6.512,5.852-11.22s-2.068-8.1-5.852-11.22l-.506.484A15.776,15.776,0,0,1,288.948-6.93Z" transform="translate(4089 -110)" fill="#072a2e"/>
    <path id="路径_18" data-name="路径 18" d="M4.7-.56V-4.768h6.672V-.56Zm6.5-4.672H4.8l-1.68-.7V1.3h.24C4,1.3,4.7.944,4.7.784V-.1h6.672V1.168h.256A2.594,2.594,0,0,0,12.96.784V-4.448a1.248,1.248,0,0,0,.72-.368L12-6.128Zm-1.28-5.76A14.5,14.5,0,0,1,12.336-8.48c-3.68.176-7.216.32-9.36.352a26.162,26.162,0,0,0,5.552-4.24.566.566,0,0,0,.656-.24l-2.16-.928A17.589,17.589,0,0,1,2.016-8.32a2.451,2.451,0,0,1-.544.176L2.08-6.352a.864.864,0,0,0,.4-.3c4.192-.5,7.7-1.024,10.128-1.456a7.092,7.092,0,0,1,.88,1.68c1.728,1.072,2.592-2.752-3.408-4.7ZM22.848-8.656H18.624l.144.464h4.08v4.4c-2,.64-3.936,1.216-4.752,1.408l.9,1.936A.57.57,0,0,0,19.36-.88c1.456-.944,2.624-1.76,3.488-2.384V1.312h.3c.56,0,1.2-.3,1.2-.48V-12.336c.416-.064.544-.224.576-.448l-2.08-.208ZM32.48-3.168h-.16a13.55,13.55,0,0,1-.656,2.256.47.47,0,0,1-.384.224c-.224.016-.656.032-1.216.032H28.736c-.576,0-.7-.144-.7-.512V-6.24A19.838,19.838,0,0,0,32.4-9.088a.549.549,0,0,0,.656-.1l-1.9-1.264A25.376,25.376,0,0,1,28.032-6.7V-12.32c.4-.064.544-.224.576-.432l-2.08-.24V-.784c0,1.216.432,1.568,1.888,1.568h1.536c2.5,0,3.2-.256,3.2-.944,0-.288-.128-.464-.608-.656Zm8.928-10.256a5.326,5.326,0,0,1,1.488,2.3c1.584.976,2.784-2.08-1.36-2.416Zm6.464,2.576H35.792l.144.464H42.4v2.16H39.472L37.84-8.912V-.848h.24c.624,0,1.28-.336,1.28-.5V-7.76H42.4V1.36h.288c.8,0,1.3-.32,1.3-.448V-7.76h3.04v5.008c0,.208-.08.3-.352.3-.368,0-1.792-.1-1.792-.1v.24a2.1,2.1,0,0,1,1.3.512,1.9,1.9,0,0,1,.32,1.04c1.824-.16,2.064-.784,2.064-1.84v-4.9a1.378,1.378,0,0,0,.672-.32L47.584-9.056l-.72.832h-2.88v-2.16h6.24c.24,0,.4-.08.448-.256-.688-.608-1.792-1.456-1.792-1.456Zm13.7,5.52V-9.584h4.048v4.256Zm-5.648,0V-9.584h4.048v4.256Zm10.32-5.584-.784.864H61.568v-2.784c.432-.064.544-.24.592-.464l-2.192-.224v3.472h-3.9l-1.712-.72v7.456h.24c.64,0,1.328-.368,1.328-.512v-1.04h4.048V1.36h.3c.608,0,1.3-.4,1.3-.576V-4.864h4.048v1.328h.272a2.415,2.415,0,0,0,1.328-.4V-9.312a1.191,1.191,0,0,0,.672-.336Zm16.88,1.04V-.656H79.152V-12.512c.416-.064.544-.224.576-.464l-2.192-.208V-.656h-3.92V-9.168c.4-.064.56-.208.592-.448l-2.176-.24V-.832a2.645,2.645,0,0,0-.608.464l1.744.944.56-.768H83.12V1.36h.3c.592,0,1.3-.352,1.3-.5V-9.2c.416-.064.544-.224.592-.448Zm17.9,9.856H90.992V-11.824h11.36c.224,0,.4-.08.416-.256-.624-.592-1.68-1.392-1.68-1.392l-.944,1.184H91.2l-1.744-.9V-.192a2.892,2.892,0,0,0-.672.464l1.728.992L91.1.448h11.9c.24,0,.4-.08.448-.256-.608-.544-1.6-1.28-1.6-1.28Zm-2.272-2.4V-5.04h1.7v2.624Zm1.92,1.216a1.772,1.772,0,0,0,1.088-.384v-3.3a1.018,1.018,0,0,0,.576-.272L100.96-6.208l-.656.7H98.816l-1.36-.576v5.056h.192c.528,0,1.1-.288,1.1-.416v-.512h1.7V-1.2ZM93.3-2.416V-5.04h1.728v2.624Zm1.952,1.28A1.772,1.772,0,0,0,96.32-1.5V-4.9a.86.86,0,0,0,.528-.272L95.536-6.176,94.9-5.5H93.36L92.016-6.08V-.816h.192c.528,0,1.088-.272,1.088-.4v-.736h1.728v.816Zm.016-6.64V-10h3.152v2.224Zm3.152,1.168h.24a2.173,2.173,0,0,0,1.216-.384v-2.8a.97.97,0,0,0,.592-.288l-1.5-1.136-.688.752H95.344l-1.52-.624V-6.4h.208c.592,0,1.232-.3,1.232-.432v-.48h3.152ZM117.3-2.4c.224,0,.384-.08.432-.256-.56-.5-1.472-1.184-1.472-1.184l-.8.976H114.3V-4.816h2.816c.208,0,.368-.08.4-.256-.5-.464-1.328-1.072-1.328-1.072l-.736.864h-.976a21.063,21.063,0,0,0,1.68-1.888c.336.016.544-.112.608-.3L114.9-8.016c-.208.8-.544,1.936-.848,2.736h-3.984l.128.464h2.64v1.952H109.68l.128.464h3.024V.928h.256c.752,0,1.216-.256,1.216-.336V-2.4Zm-6.608-5.44a4.56,4.56,0,0,1,.864,2.192c1.184,1.024,2.544-1.344-.7-2.288Zm7.456-3.408h-3.776v-1.68c.416-.064.544-.224.576-.448l-2.112-.192v2.32h-6.48l.128.464h6.352v2.1h-3.488l-1.664-.7V1.36h.24c.64,0,1.3-.384,1.3-.56V-8.224h8.976V-.688c0,.224-.08.352-.368.352-.416,0-2.112-.128-2.112-.128v.24a2.592,2.592,0,0,1,1.472.544,1.566,1.566,0,0,1,.368,1.056c1.936-.176,2.192-.832,2.192-1.9V-7.952a1.378,1.378,0,0,0,.672-.32l-1.632-1.264-.752.848h-3.664v-2.1H120.5c.224,0,.384-.08.432-.256-.688-.608-1.808-1.424-1.808-1.424ZM127.52-3.76A14.379,14.379,0,0,1,123.664.56l.144.176A14.29,14.29,0,0,0,128.8-2.512c.368.08.5,0,.592-.144Zm.608-1.552v-3.12H134.3v3.12Zm6.176.464V-4.1h.256a2.365,2.365,0,0,0,1.328-.432V-8.144a1.191,1.191,0,0,0,.672-.336l-1.648-1.264-.768.848h-5.9l-1.68-.672v5.632h.224c.64,0,1.344-.352,1.344-.5v-.416h2.32V-.64c0,.208-.08.3-.368.3-.368,0-2.176-.128-2.176-.128v.208a2.661,2.661,0,0,1,1.52.528,1.683,1.683,0,0,1,.384,1.072c1.936-.144,2.24-.848,2.24-1.936V-4.848Zm-.96,1.52A13.853,13.853,0,0,1,136.576.384c1.68.9,2.48-2.416-3.072-3.856Zm2.448-7.792h-3.76c.88-.448.7-2.432-2.7-2.512l-.112.112a5.674,5.674,0,0,1,1.888,2.336.568.568,0,0,0,.144.064h-7.376l.128.464h14.16c.224,0,.4-.08.432-.256-.688-.608-1.808-1.456-1.808-1.456Zm9.424,4.56h2.752v1.808h-2.752Zm2.752-2.24v1.776h-2.752V-8.8Zm4.352,0v1.776h-2.8V-8.8Zm-2.8,4.048V-6.56h2.8v1.808Zm2.8.464V-3.5h.256a2.151,2.151,0,0,0,1.328-.48V-8.528a1.193,1.193,0,0,0,.656-.336l-1.632-1.248-.768.848h-2.64v-1.584h5.952c.224,0,.384-.08.432-.256-.672-.608-1.808-1.488-1.808-1.488l-.992,1.28H149.52v-1.52c.432-.064.544-.224.592-.448l-2.144-.224v2.192H141.7l.144.464h6.128v1.584h-2.64l-1.648-.688v6.608h.224c.624,0,1.312-.336,1.312-.48v-.464h1.92A15.7,15.7,0,0,1,141.344.768l.144.224a16.166,16.166,0,0,0,6.48-3.808V1.36h.32c.576,0,1.232-.32,1.232-.5V-4.208A10.791,10.791,0,0,0,155.04.9,1.727,1.727,0,0,1,156.3-.48l.032-.176a12.582,12.582,0,0,1-6.5-3.632Zm8.7-7.616h2.352V-8.5h-2.352Zm2.016,6.88H165.1c.224,0,.368-.08.416-.256-.48-.528-1.344-1.3-1.344-1.3l-.736,1.088h-.4V-8.032h.336v.5h.224a2.052,2.052,0,0,0,1.12-.352V-11.68a1.184,1.184,0,0,0,.64-.3l-1.472-1.1-.672.72h-1.984l-1.568-.608v5.664h.224c.7,0,1.136-.32,1.136-.416v-.3h.672V-1.2l-.832.192V-5.952c.288-.032.4-.16.432-.336l-1.632-.16v5.7c-.384.08-.7.128-.944.176l.688,1.7a.546.546,0,0,0,.384-.384c2.592-1.088,4.48-1.968,5.792-2.608l-.048-.224c-.848.208-1.7.416-2.5.592Zm7.52.672h-3.072l-1.216-.48a12.858,12.858,0,0,0,2.912-1.952,8.813,8.813,0,0,0,2.048,1.648ZM167.3-.256V-3.888h3.312V-.256Zm3.216-10.768a11.341,11.341,0,0,1-1.472,2.736,7.627,7.627,0,0,1-1.44-1.776,9.88,9.88,0,0,0,.624-.96Zm.832-1.3-.848.832H168.48a10.381,10.381,0,0,0,.5-1.04.578.578,0,0,0,.624-.32l-2.016-.672a14.024,14.024,0,0,1-2.832,5.792l.192.16a9.388,9.388,0,0,0,2.384-2.144,11.63,11.63,0,0,0,1.184,2.1,13.121,13.121,0,0,1-4.5,3.424l.112.224a13.17,13.17,0,0,0,1.744-.672v6h.24c.736,0,1.184-.256,1.184-.368V.208h3.312v1.1h.272A1.716,1.716,0,0,0,172.112.96V-3.792a.861.861,0,0,0,.608-.272l-1.136-.864a13.371,13.371,0,0,0,1.36.608,1.489,1.489,0,0,1,1.072-1.344l.032-.16a11.505,11.505,0,0,1-4.08-1.728A12.245,12.245,0,0,0,172.1-10.8c.384-.032.544-.08.672-.24Zm5.3,5.5.16.528h14.16c.256,0,.448-.064.5-.256-.816-.768-2.16-1.888-2.16-1.888l-1.184,1.616Zm23.792.24a4.38,4.38,0,0,0,2.784-4.368v-.96h2.128v3.232c0,.848.112,1.168,1.136,1.168h.688c1.36,0,1.856-.256,1.856-.816,0-.272-.128-.4-.5-.56l-.064-.032h-.16a1.15,1.15,0,0,1-.3.064,1.464,1.464,0,0,1-.256.016h-.752c-.192,0-.224-.048-.224-.224v-2.688a1.138,1.138,0,0,0,.592-.24l-1.424-1.168-.736.784h-1.76l-1.648-.64v2.064a5.231,5.231,0,0,1-1.52,4.176Zm.544,2.464c-1.344.32-2.7.624-3.872.88v-2.32h3.168c.224,0,.368-.08.416-.256-.544-.544-1.472-1.3-1.472-1.3L198.4-6.016h-1.3V-8.48h3.088c.24,0,.384-.08.432-.256-.544-.512-1.456-1.248-1.456-1.248l-.8,1.04H197.1v-2.208a26.95,26.95,0,0,0,3.392-.9c.32.08.464.064.576-.08l-1.712-1.328a23.69,23.69,0,0,1-2.192,1.728l-1.5-.7v9.5q-1.1.24-1.728.336l.88,1.76a.726.726,0,0,0,.384-.4l.464-.192V1.36h.192c.848,0,1.232-.352,1.248-.464V-2.048c1.68-.736,2.976-1.36,3.92-1.84Zm4.912-1.7a10.24,10.24,0,0,1-1.68,3.1,7.709,7.709,0,0,1-1.936-3.1Zm.832-1.312-.88.848h-5.056l.144.464h1.024a11.069,11.069,0,0,0,1.6,3.856,12.7,12.7,0,0,1-5.024,3.12l.112.224a13.906,13.906,0,0,0,5.568-2.5A10.061,10.061,0,0,0,207.92,1.36a1.733,1.733,0,0,1,1.344-1.3l.032-.176a11.562,11.562,0,0,1-4.16-1.824A11.059,11.059,0,0,0,207.5-5.568c.384-.032.544-.08.656-.224Zm9.12,1.584c-1.344,0-2.32-.976-2.32-2.9,0-2,.928-2.976,2.032-2.976,1.216,0,2.08,1.232,2.08,4.16,0,.368-.016.72-.048,1.072A2.555,2.555,0,0,1,215.84-5.536ZM212.784.32c4.464-1.008,6.64-4,6.64-7.568,0-2.96-1.44-4.8-3.84-4.8a3.644,3.644,0,0,0-3.824,3.824,3.322,3.322,0,0,0,3.456,3.536A3.332,3.332,0,0,0,217.5-5.5c-.432,2.56-1.888,4.3-4.832,5.312ZM226.56-12v2.672h-2.016V-12Zm-2.016,3.136h2.016v.528h.224A1.969,1.969,0,0,0,227.92-8.7v-3.04a1.316,1.316,0,0,0,.672-.336l-1.5-1.136-.688.752h-1.792l-1.408-.592v5.008h.192c.56,0,1.152-.288,1.152-.4Zm2.592,3.2-.72.72H224.8c.224-.656.48-1.5.608-2.064h3.2c.208,0,.368-.08.4-.256a16.37,16.37,0,0,0-1.36-1.184l-.736.976h-4.544l.128.464H224c-.128.576-.336,1.36-.528,1.936a2.9,2.9,0,0,0-.592.3l1.28.928.624-.64h1.76c-.16,2.048-.448,3.264-.784,3.552a.678.678,0,0,1-.512.144c-.3,0-1.312-.08-1.936-.128v.256a3.182,3.182,0,0,1,1.344.464,1.04,1.04,0,0,1,.288.88,2.719,2.719,0,0,0,1.68-.48c.672-.5,1.056-1.936,1.232-4.512a.844.844,0,0,0,.624-.256Zm9.824,3.5h-.192a13.264,13.264,0,0,1-.48,1.744c-.048.128-.1.144-.192.144h-.768c-.192,0-.224-.032-.224-.208V-3.664a.774.774,0,0,0,.528-.224l-1.248-1.088-.688.7h-1.088l-1.456-.592v1.84a4.357,4.357,0,0,1-2.256,4.1l.144.224c3.024-1.1,3.344-3.024,3.344-4.32v-.784h1.472V-.16c0,.752.128,1.072,1.072,1.072h.7c1.28,0,1.76-.256,1.76-.752,0-.224-.048-.384-.384-.528Zm-5.04-7.232V-7.68l-1.392.128.176.464L231.92-7.2v.928c0,.784.176,1.04,1.312,1.04h1.152c1.872,0,2.368-.16,2.368-.656,0-.224-.08-.352-.432-.5l-.048-1.328h-.192a5.69,5.69,0,0,1-.464,1.312.285.285,0,0,1-.272.128c-.128.016-.464.016-.864.016h-.944c-.352,0-.4-.048-.4-.224v-.832l2.384-.208a.371.371,0,0,0,.384-.3c-.512-.4-1.408-.96-1.408-.96l-.624.944-.736.064V-8.848c.288-.032.432-.176.464-.368Zm4.16-1.536-.768.768h-2.1v-1.168h3.312a.364.364,0,0,0,.4-.256c-.512-.5-1.36-1.168-1.36-1.168l-.768.96h-1.584v-1.1c.4-.064.56-.224.592-.448l-1.952-.176v3.36h-1.248l-1.568-.608V-5.92c0,2.576-.224,5.088-2.048,7.04l.192.176c2.944-1.872,3.2-4.752,3.2-7.232V-9.7h5.04c-.064.4-.16.88-.24,1.168l.192.1a8.1,8.1,0,0,0,1.488-1.008c.3-.016.48-.048.592-.176Z" transform="translate(4089 -82)" fill="#072a2e"/>
  </g>
</svg>
