<svg xmlns="http://www.w3.org/2000/svg" width="540.634" height="67.776" viewBox="0 0 540.634 67.776">
  <g id="title" transform="translate(-3980.938 -516.488)">
    <path id="路径_17" data-name="路径 17" d="M-267.852-27.88a9.576,9.576,0,0,1,2.38,4.352c3.4,2.278,6.562-4.148-2.074-4.556Zm5.95,5.746h-8.16l.272.952h11.254a.814.814,0,0,0,.884-.544c-1.02-1.02-2.754-2.414-2.754-2.414Zm-7.072,4.284.272.986h8.942c.442,0,.782-.17.85-.544-.952-.952-2.55-2.244-2.55-2.244l-1.428,1.8Zm9.146,5.338c.476,0,.782-.17.884-.544-.952-.918-2.584-2.21-2.584-2.21l-1.394,1.8h-6.052l.272.952ZM-265.506-1.36V-8.228h2.618V-1.36Zm5.848-6.46A1.936,1.936,0,0,0-258.5-8.4l-3.162-2.414-1.564,1.632h-2.108l-3.434-1.394v13.4h.51c1.36,0,2.754-.748,2.754-1.02V-.374h2.618V1.292h.544a4.511,4.511,0,0,0,2.686-.986Zm8.806-9.248-1.6,1.6h-1.8v-5h5.406c.068,1.87.17,3.638.34,5.372Zm-3.4,2.584h2.142c-.1,5.916-.272,8.364-.714,8.976-.1.17-.2.2-.442.2-.374,0-1.258-.034-1.87-.068a37.285,37.285,0,0,0,.884-8.976ZM-238.2-6.732l-.374-.068c-.51,1.428-1.258,3.128-1.666,3.978-.34.646-.51.646-.918.1A13.912,13.912,0,0,1-243.3-6.562a37.7,37.7,0,0,0,3.638-9.044c.884.034,1.19-.17,1.326-.578l-4.318-1.36a54.107,54.107,0,0,1-1.836,6.868,61.457,61.457,0,0,1-.918-9.792h6.63c.476,0,.816-.17.918-.544-.782-.714-1.836-1.6-2.584-2.21,2.142-.238,2.992-4.012-3.264-4.386l-.306.2a7.913,7.913,0,0,1,2.04,3.74,2.031,2.031,0,0,0,.374.2l-1.564,2.006h-2.244c-.034-1.836,0-3.672.034-5.542.884-.1,1.19-.51,1.224-.952l-4.828-.544q0,3.621.1,7.038h-4.828l-3.876-1.428v8.534c0,5.576-.17,11.968-2.924,17.068l.408.306a15.873,15.873,0,0,0,4.93-8.3V-4.9a2.809,2.809,0,0,1,1.564.952A3.356,3.356,0,0,1-253.2-2.21a3.892,3.892,0,0,0,2.482-.816c1.258-1.122,1.428-3.944,1.564-11.05a2.7,2.7,0,0,0,.748-.2,41.287,41.287,0,0,0,1.734,8.5,24.36,24.36,0,0,1-7.344,8.126l.306.51A24.032,24.032,0,0,0-245.65-3.23,18.383,18.383,0,0,0-243.3.646c1.122,1.462,3.434,3.026,4.964,1.768.544-.476.374-1.53-.544-3.434ZM-221.068-22.1c-.17.952-.408,2.108-.68,3.06h-2.346c1.02-.782.986-2.516-2.448-3.06ZM-224.4-11.152h.646a4.773,4.773,0,0,0,2.924-.68v-3.23h6.426a.814.814,0,0,0,.884-.544c-1.122-.918-2.822-2.04-2.822-2.04l-1.53,1.6h-2.958v-2.04h5.27c.442,0,.782-.17.85-.544-.952-.816-2.414-1.8-2.414-1.8l-1.326,1.394h-1.8a16.92,16.92,0,0,0,2.108-1.632c.748,0,1.122-.272,1.224-.68l-3.332-.748h5.44c.476,0,.782-.17.884-.544-1.224-.986-2.992-2.176-2.992-2.176l-1.632,1.734h-2.278v-1.972h4.794c.476,0,.782-.17.884-.544-1.19-.952-2.992-2.176-2.992-2.176l-1.6,1.734h-1.088v-1.8c.714-.1.918-.374.952-.782L-224.4-29v2.958h-5l.272.986h4.726v1.972h-6.392l.272.986h3.332l-.2.1a4.574,4.574,0,0,1,.85,2.754c.1.068.17.136.272.2h-3.468l.272.952h5.066v2.04h-6.528l.272.986h6.256Zm19.482,7.106h-7.99v-2.38h9.282c.476,0,.816-.17.918-.544-1.394-1.156-3.638-2.686-3.638-2.686l-1.972,2.278h-4.59V-9.826c2.618-.136,5.066-.374,7.174-.612a2.229,2.229,0,0,0,2.108.136l-3.2-3.332a123.225,123.225,0,0,1-21.76,3.4l.1.578c3.74.17,7.786.17,11.628.034v2.244h-10.676l.272.952h10.4v2.38h-13.7l.272.952h13.43v1.632c0,.374-.17.578-.748.578-.816,0-5-.272-5-.272v.442A6.286,6.286,0,0,1-219.164.51a3.787,3.787,0,0,1,.918,2.516c4.624-.34,5.338-1.9,5.338-4.42v-1.7h12.784c.476,0,.85-.17.952-.544-1.428-1.19-3.706-2.788-3.706-2.788Zm5.542-14.348-.374-.034a25.849,25.849,0,0,1-.952,2.55c-.136.272-.272.34-.51.17-1.122-1.054-1.564-4.828-1.428-7.752a2.167,2.167,0,0,0,1.258-.51l-3.264-2.516-1.734,1.768h-1.5c.068-.952.1-1.9.136-2.856.714-.1,1.02-.442,1.088-.884l-4.59-.408c0,1.428,0,2.788-.034,4.148h-3.332l.306.952h2.992c-.068.952-.136,1.87-.238,2.754a27.172,27.172,0,0,0-2.924-.782l-.272.442a22.257,22.257,0,0,1,2.788,2.414,12.257,12.257,0,0,1-3.57,6.358l.374.476a12.788,12.788,0,0,0,5.134-4.624A9.617,9.617,0,0,1-208.93-15.1c2.278,1.428,4.522-1.9.2-4.624a17.064,17.064,0,0,0,.748-4.046h1.972c.1,4.76.68,9.146,3.2,11.254,1.088.85,2.89,1.326,3.672.068.408-.68.136-1.462-.544-2.414Zm14.926,1.054h4.012a.8.8,0,0,0,.85-.544,41.45,41.45,0,0,0-2.924-3.3l-1.7,2.89h-.238v-8.4c.952-.136,1.19-.476,1.258-.952l-5-.476v9.826h-3.57l.272.952h3.3V-5.984c-1.7.544-3.128.986-4.046,1.224l1.972,4.522a1.468,1.468,0,0,0,.816-1.02A103.958,103.958,0,0,0-180-8.568l-.136-.34c-1.428.578-2.89,1.122-4.318,1.632Zm18.9-2.958c-.068,7.038-.272,9.656-.816,10.234a1.028,1.028,0,0,1-.85.272c-.442,0-1.258-.034-1.768-.068v-9.18Zm4.012,13.09h-.374a22.261,22.261,0,0,1-1.8,4.692,1.656,1.656,0,0,1-1.258.51c-.714.068-2.108.1-3.808.1h-4.59c-1.768,0-2.278-.306-2.278-1.326v-13.4l2.992-1.088v13.8h.68c1.394,0,2.992-.748,2.992-1.122V-9.35a2.248,2.248,0,0,1,1.428,1.02,5.081,5.081,0,0,1,.374,2.55,4.993,4.993,0,0,0,3.536-1.156c1.428-1.224,1.734-3.706,1.836-12.716a2.1,2.1,0,0,0,1.326-.612l-3.468-2.856-1.972,1.9h.068l-.34.1-2.788,1.02v-7.242c.918-.136,1.156-.476,1.224-.952l-4.9-.51v10.03l-2.992,1.088v-6.834c.85-.136,1.156-.51,1.224-.952l-5.032-.544v9.724l-3.978,1.462.646.816,3.332-1.224V-2.21c0,3.332,1.5,4.046,5.644,4.046h4.692c7.582,0,9.384-.68,9.384-2.584,0-.714-.408-1.19-1.666-1.632Zm34.918-13.77a46.319,46.319,0,0,1-.646,5.916,36.253,36.253,0,0,0-2.89-2.448,23.352,23.352,0,0,0,1.632-3.468Zm-5.848,6.494a16.447,16.447,0,0,0,1.938-2.38c.85,1.292,1.768,2.788,2.652,4.352a21.1,21.1,0,0,1-6.392,10.438l.272.374a19.283,19.283,0,0,0,7.82-7.548,24.128,24.128,0,0,1,1.938,5.3c2.618,2.108,4.318-2.278-.51-8.364a32.974,32.974,0,0,0,1.87-8.67h1.292c.476,0,.816-.17.918-.544-1.19-1.19-3.23-2.924-3.23-2.924l-1.768,2.516h-2.482a41.164,41.164,0,0,0,1.326-5c.748-.068,1.122-.408,1.224-.85l-4.828-.782a42.674,42.674,0,0,1-2.55,13.8Zm-19.108-13.532A21.446,21.446,0,0,1-148.1-20.74c3.57,2.652,6.6-4.488-3.128-7.446ZM-136-23.732v2.652h-4.08v-2.652Zm-4.08,6.222v-2.584H-136v2.584Zm3.91,8.3c-.17,2.21-.408,3.366-.714,3.74a.505.505,0,0,1-.442.2c-.442,0-1.632-.068-2.414-.136v.476a3.491,3.491,0,0,1,1.9,1.02,2.508,2.508,0,0,1,.476,1.734,4.905,4.905,0,0,0,2.618-.646c1.122-.816,1.53-2.482,1.8-5.95a1.723,1.723,0,0,0,1.224-.544l-3.06-2.448-1.666,1.6h-1.87a13.091,13.091,0,0,0,.272-1.972h6.426c.476,0,.85-.17.918-.544-1.224-.986-3.128-2.278-3.128-2.278l-1.666,1.87h-1.5c1.326-.782,1.394-2.992-3.026-3.23l-.068.034v-.238H-136v.952h.544a4.918,4.918,0,0,0,2.72-.85v-6.97a1.784,1.784,0,0,0,1.02-.544l-3.094-2.312-1.5,1.564h-2.652A25.972,25.972,0,0,0-136.2-27.37a1.108,1.108,0,0,0,1.19-.782l-4.658-.68c0,1.19-.1,2.89-.238,4.148h-.034l-3.434-1.428v11.186h.476a4.282,4.282,0,0,0,2.788-.952,4.269,4.269,0,0,1,.748,2.482,1.728,1.728,0,0,0,.442.306h-5.848l.272.952h3.026c-.068,2.822-.34,5.984-2.516,8.806a8.062,8.062,0,0,1-1.326-1.088V-15.062a2.579,2.579,0,0,0,1.734-.714l-3.876-3.162-1.836,2.414h-3.5l.2.986h3.808v11.73c-1.36.918-3.06,2.108-4.284,2.856l2.618,3.876a.637.637,0,0,0,.306-.748c.986-1.87,2.482-4.25,3.162-5.406.374-.578.714-.646,1.19,0,2.89,4.012,5.984,5.576,13.056,5.576h9.588a3.466,3.466,0,0,1,2.55-3.23v-.374c-3.876.17-7.106.238-10.914.238-5.576,0-9.112-.408-11.7-1.836a10.922,10.922,0,0,0,4.624-6.358ZM-110.3-28.186a9.682,9.682,0,0,1,2.38,4.658c3.6,2.38,6.834-4.42-2.142-4.862Zm6.528,5.916H-113.7l.272.986h13.6c.442,0,.816-.17.884-.544-1.156-1.122-3.094-2.686-3.094-2.686Zm-8.5,4.352.272.986h10.812c.476,0,.816-.17.918-.544-1.122-1.088-2.992-2.584-2.992-2.584l-1.666,2.142Zm7.344,4.386h-7.344l.272.986h10.812c.476,0,.816-.17.918-.544-1.122-1.088-2.992-2.516-2.992-2.516Zm-3.434,12.07V-8.126h3.706v6.664Zm3.4-7.616h-3.264l-3.6-1.462V2.652h.51c1.462,0,2.958-.782,2.958-1.122V-.51h3.706V1.326h.612c1.156,0,2.89-.748,2.924-1.02V-7.582a2.393,2.393,0,0,0,1.258-.646l-3.468-2.584Zm10.2,3.536V-8.364h6.7v2.822Zm6.7-6.868v3.094h-6.7V-12.41Zm-.34-.952h-6.188l-3.842-1.6V2.924h.544c1.564,0,3.128-.782,3.128-1.19v-6.29h6.7v2.584c0,.442-.136.646-.612.646-.646,0-3.332-.2-3.332-.2v.51A3.316,3.316,0,0,1-89.59.238a5.442,5.442,0,0,1,.612,2.72c4.046-.374,4.59-1.9,4.59-4.454V-11.764a2.777,2.777,0,0,0,1.394-.748L-86.768-15.3Zm1.5-3.264h-2.788v-3.2h5.644a.814.814,0,0,0,.884-.544c-1.224-1.122-3.23-2.686-3.23-2.686l-1.734,2.278h-1.564V-23.8h6.7a.856.856,0,0,0,.918-.544c-1.326-1.224-3.5-2.89-3.5-2.89l-1.87,2.448h-2.244v-2.788c.782-.136,1.02-.442,1.088-.884l-4.828-.442v4.114h-6.29l.272.986h6.018v3.026h-5l.272.952h4.726v3.2h-7.208l.272.986h17.952c.476,0,.85-.17.918-.544-1.326-1.224-3.5-2.924-3.5-2.924Zm16.932,8.262h.748A5.058,5.058,0,0,0-65.96-9.418V-20.842c.612-.1.952-.34,1.054-.646l-1.768-.646a29.23,29.23,0,0,0,2.516-4.148c.782.068,1.224-.2,1.36-.612L-68.17-28.9a45.211,45.211,0,0,1-6.29,13.736l.34.306a27.412,27.412,0,0,0,4.148-3.332Zm.306.238a5.681,5.681,0,0,1-2.618,4.9A2.179,2.179,0,0,0-73.576-.646a2.088,2.088,0,0,0,3.128.714c1.666-1.02,2.924-3.978,1.258-8.228Zm19.312,2.414h-.374a18.131,18.131,0,0,1-1.666,3.74c-.238.34-.442.442-1.02.476-.51.034-1.87.034-3.366.034h-4.182c-1.326,0-1.462-.1-1.462-.612V-7.446c.68-.1,1.02-.408,1.088-.85l-5.1-.408v7.412c0,2.652.918,3.264,4.794,3.264h4.454c6.8,0,8.432-.544,8.432-2.244,0-.748-.306-1.19-1.53-1.564Zm-5-7.514c0,.374-.136.476-.578.476-.544,0-3.366-.17-3.366-.17v.442a3.387,3.387,0,0,1,2.448,1.19,4.506,4.506,0,0,1,.646,2.55c4.216-.374,4.76-1.768,4.76-4.386v-8.67c.748-.136,1.088-.374,1.156-.884l-5.066-.442Zm4.522-6.052a16.1,16.1,0,0,1,3.91,7c3.57,2.55,6.426-4.658-3.57-7.242Zm-9.792,9.554A10.964,10.964,0,0,1-57.9-4.046c3.264,2.55,6.426-4.08-2.414-5.916Zm-3.23-1.734a15.964,15.964,0,0,0,7.174-6.358c.714.068,1.19-.2,1.326-.612l-4.76-1.768a20.7,20.7,0,0,1-4.148,8.4Zm13.668,3.5a13.878,13.878,0,0,1,3.06,7.48c3.638,3.128,7.276-4.59-2.754-7.684Zm4.08-18.666-2.074,2.108h-9.35a21.249,21.249,0,0,0,1.122-2.142c.782,0,1.224-.272,1.36-.714L-60.452-29a35.1,35.1,0,0,1-4.216,11.56l.374.306a21.327,21.327,0,0,0,6.154-6.392h10.166c-.272,1.258-.68,2.822-1.02,3.91l.238.238a24.944,24.944,0,0,0,4.964-3.366c.68-.068,1.054-.136,1.292-.442Zm32.742,5.508a24.23,24.23,0,0,1-2.788,9.86,13.509,13.509,0,0,1-1.53-2.618v-8.3H-5c.51,0,.884-.17.986-.544-1.632-1.36-4.216-3.332-4.216-3.332l-2.346,2.89H-17.68v-4.114c.918-.136,1.156-.476,1.224-.952l-5.3-.544v5.61H-35.02l.272.986H-21.76v7.378A31.7,31.7,0,0,1-35.564.884l.272.442A36.014,36.014,0,0,0-21.76-7.208V3.06h.782c1.53,0,3.3-1.02,3.3-1.462v-13.8C-15.572-5.746-12.07-1.36-6.8,1.224a4.366,4.366,0,0,1,3.2-3.5l.068-.408a23.148,23.148,0,0,1-12.1-7.854,13.733,13.733,0,0,0,4.352-4.76,13.481,13.481,0,0,1,2.482,4.726c3.264,2.278,6.018-3.706-1.836-5.984a16.8,16.8,0,0,0,1.054-2.618c.782,0,1.156-.306,1.292-.748ZM-29.1-21.08a26.668,26.668,0,0,1-4.93,11.934l.408.306a17.721,17.721,0,0,0,6.154-6.052,8.772,8.772,0,0,1,.918,3.06c2.72,2.346,5.916-2.346-.068-4.59A24.419,24.419,0,0,0-25.5-18.938a1.214,1.214,0,0,0,1.292-.748ZM5.3,2.618c9.52.612,20.128-1.7,25.636-5.168.612.272,1.02.238,1.258-.034l-3.6-3.536C24-2.108,14.008,1.326,5.2,2.074Zm1.5-6.8C12.546-5,19.108-7.48,22.508-10c.578.17.986.136,1.19-.136l-3.876-2.754C17.2-9.894,11.526-6.358,6.6-4.658Zm0,3.4c7.174-.34,15.3-2.822,19.516-5.576.578.136,1.02.136,1.224-.1L23.868-9.52C20.4-6.222,12.988-2.754,6.63-1.258ZM17.986-17.238c-.2-1.054-1.36-2.278-4.284-2.856l-.34.2A11.552,11.552,0,0,1,14.892-17c-2.312.238-4.59.476-6.46.646a34,34,0,0,0,4.08-2.21c.646.2,1.088.034,1.258-.238l-2.04-1.6c4.726-.918,8.772-1.8,11.968-2.55A12.467,12.467,0,0,1,20.2-18.5a5.011,5.011,0,0,1-.884.238l1.122,2.176L18.19-17.476Zm3.23,2.822c.816.17,1.224.1,1.5-.238l-.816-.51c2.992-.748,5.712-1.564,7.65-2.176a8.538,8.538,0,0,1,.578,2.312c2.584,2.244,5.644-2.788-1.564-5.3l-.374.2a13.611,13.611,0,0,1,.986,1.87c-2.448.034-4.726.1-6.494.1a27.192,27.192,0,0,0,4.352-2.482c.646.136,1.054-.068,1.19-.306l-3.638-2.21c.748-.17,1.36-.34,1.972-.476a14.229,14.229,0,0,1,2.108,2.686c3.74,1.462,5.1-5.372-5.168-6.018l-.272.272a23.875,23.875,0,0,1,2.72,2.38c-4.692.272-9.214.476-12.614.612a45.362,45.362,0,0,0,7.922-3.094c.816.1,1.258-.136,1.394-.476l-4.828-2.244a20.814,20.814,0,0,1-8.092,5.474,8.313,8.313,0,0,1-1.088.238L9.69-21.284c-.85,1.5-2.822,4.012-4.352,4.794a6.565,6.565,0,0,1-.952.272l1.7,3.842a1.62,1.62,0,0,0,.68-.612c3.4-1.258,6.426-2.516,8.364-3.332.034.2.068.374.1.578a2.239,2.239,0,0,0,1.088.442A31.256,31.256,0,0,1,3.672-7.48l.17.51c6.222-1.02,11.628-2.924,16.456-6.7,2.822,3.332,7.072,5.3,12.75,6.29a4.192,4.192,0,0,1,2.89-3.6v-.408c-5.372-.034-11.288-.986-14.824-2.924Zm33.15-6.936H51.544c.068-1.972.068-3.944.1-5.848.85-.136,1.156-.442,1.258-.952l-5.27-.476c0,2.414.034,4.828,0,7.276H43.078l.306.952H47.6c-.136,8.024-.986,16.048-5.406,22.95l.476.476c7.174-6.392,8.5-14.96,8.84-23.426h3.2c-.238,11.322-.612,16.966-1.768,18.054a1.63,1.63,0,0,1-1.19.408c-.68,0-2.448-.136-3.536-.238l-.034.476A4.766,4.766,0,0,1,50.932-.306a4.457,4.457,0,0,1,.544,2.754,5.919,5.919,0,0,0,4.488-1.7c1.836-1.9,2.312-6.834,2.584-20.468a2.25,2.25,0,0,0,1.462-.68l-3.57-3.094ZM64.838-2.72V-22.134h4.148V-2.72Zm5.746-22.542-1.938,2.176H64.974L60.962-24.82V2.312h.68c1.666,0,3.2-.918,3.2-1.394V-1.734h4.148V1.7h.646c1.53,0,3.332-1.054,3.4-1.428V-21.42a2.541,2.541,0,0,0,1.394-.748Zm34.2-1.5a10.515,10.515,0,0,1,2.754,5.474c3.332,2.55,6.63-4.08-2.448-5.712ZM113.424-7.14l-.34-.1a33.807,33.807,0,0,1-2.04,4.148c-.34.578-.578.612-1.088.136a12.217,12.217,0,0,1-3.4-3.706,32.394,32.394,0,0,0,4.488-6.6c.85.136,1.19-.1,1.394-.476l-4.828-2.176a32.544,32.544,0,0,1-2.652,5.814,31.629,31.629,0,0,1-1.5-6.8h9.418c.476,0,.85-.17.952-.544-1.53-1.258-3.978-3.026-3.978-3.026l-2.176,2.618H103.36a86.916,86.916,0,0,1-.272-9.044c.884-.1,1.156-.51,1.19-.952l-5.134-.51a103.7,103.7,0,0,0,.442,10.506h-6.12v-6.086c1.292-.272,2.482-.612,3.5-.918,1.088.374,1.836.34,2.21-.034l-4.284-3.638A58.624,58.624,0,0,1,81.94-22.61l.1.408c2.448-.2,5.032-.51,7.48-.952v5.3H81.8l.306.952h7.412v5.508c-3.366.544-6.154.986-7.684,1.156L83.606-5.61a1.544,1.544,0,0,0,.952-.85c1.8-.68,3.434-1.292,4.964-1.9v6.256c0,.442-.17.714-.748.714-.816,0-4.556-.238-4.556-.238v.442a4.915,4.915,0,0,1,3.2,1.36,4.722,4.722,0,0,1,.816,2.822c4.556-.34,5.236-2.244,5.236-4.964v-7.99c2.448-1.054,4.454-1.938,6.052-2.72l-.068-.408c-2.04.34-4.046.714-5.984,1.02V-16.9h6.222A34.948,34.948,0,0,0,102.374-6.29a30.88,30.88,0,0,1-8.84,7.718l.238.408a30.1,30.1,0,0,0,9.894-5.678A18.651,18.651,0,0,0,107.814.816c1.6,1.326,4.318,2.584,5.746,1.054.51-.578.374-1.53-.85-3.434Zm20.366-8.738V-20.3h2.754v4.42Zm2.754-9.452v4.08H133.79v-4.08Zm-.306-.986h-2.312l-3.842-1.666v.51L125.392-28.9a66.03,66.03,0,0,1-4.964,17.51l.442.272a24.083,24.083,0,0,0,2.822-3.468V3.026h.646a4.621,4.621,0,0,0,2.958-1.02V-17.986c.646-.1.952-.34,1.088-.646l-1.972-.714a49.681,49.681,0,0,0,2.754-7.276,1.669,1.669,0,0,0,.918-.2V3.026h.646c1.7,0,3.06-.918,3.06-1.428V-14.926h2.754v2.006h.544a4.563,4.563,0,0,0,2.618-.884V-24.922a1.789,1.789,0,0,0,1.19-.612l-3.128-2.38ZM144.6-15.878V-20.3h2.856v4.42Zm2.856-9.452v4.08H144.6v-4.08Zm1.462-3.06-1.8,2.074h-2.38l-3.332-1.36v14.62h.476c1.36,0,2.72-.714,2.72-.986v-.884h2.856v12.92c0,.476-.136.68-.748.68-.748,0-4.318-.2-4.318-.2v.476A4.557,4.557,0,0,1,145.418.272a4.728,4.728,0,0,1,.816,2.754c4.488-.408,5.066-1.938,5.066-4.624V-24.684a2.535,2.535,0,0,0,1.394-.714ZM165.1-2.992v-8.942h5.168v8.942Zm5.168-18.36v8.432H165.1v-8.432Zm1.462-3.026-1.8,2.04h-2.958c1.088-1.326,2.414-3.094,3.3-4.284.782,0,1.258-.238,1.394-.816l-5.508-1.326c-.17,1.9-.476,4.556-.714,6.426h-.2l-3.808-1.6v25.7h.612c1.632,0,3.06-.85,3.06-1.292V-2.04h5.168V.646h.578c1.326,0,3.128-.85,3.162-1.122V-20.74a2.443,2.443,0,0,0,1.428-.714Zm16.66-.272-2.142,2.21h-5.406a35.187,35.187,0,0,0,1.9-4.114c.782,0,1.19-.238,1.326-.68L178.7-28.8a50.584,50.584,0,0,1-4.59,14.212l.442.272a25.979,25.979,0,0,0,5.746-7.14h6.324c-.238,11.594-.578,18.36-1.836,19.516a1.624,1.624,0,0,1-1.258.442c-.884,0-3.23-.17-4.862-.306l-.034.476a7.024,7.024,0,0,1,3.6,1.5,3.758,3.758,0,0,1,.748,2.788,6.23,6.23,0,0,0,4.964-1.836c1.87-2.006,2.346-8.228,2.584-21.93a2.278,2.278,0,0,0,1.5-.646ZM176.732-15.3a15,15,0,0,1,2.89,7.038c3.6,3.026,7.31-4.318-2.618-7.242Zm31.076-4.522a48.564,48.564,0,0,1-2.142,11.56c-.85-.442-1.8-.884-2.89-1.326.918-2.958,1.87-6.766,2.686-10.234Zm1.53-2.958L207.5-20.808h-1.836c.578-2.516,1.02-4.794,1.326-6.426,1.02-.068,1.224-.408,1.36-.816l-4.862-.918c-.17,1.87-.714,4.9-1.326,8.16H199l.306.986h2.652c-.748,3.706-1.632,7.446-2.346,9.792a37.519,37.519,0,0,1,5.1,4.25,23.12,23.12,0,0,1-5.882,8.33l.374.408a21.779,21.779,0,0,0,7.31-6.8A17.118,17.118,0,0,1,208.794-.51c2.55,1.734,5.916-1.87-.578-6.29a40.83,40.83,0,0,0,3.128-12.444c.748-.1,1.088-.238,1.326-.578ZM217.294-.2v-4.25h7.412V-.2Zm-.748-20.3v-4.454c1.326.034,2.652,0,4.012-.068A27.872,27.872,0,0,0,221.1-20.5Zm8.16,15.062h-7.412V-9.724h7.412Zm-.34-5.236h-6.9l-2.856-1.19c2.89-1.7,5.44-3.4,6.7-4.25l-.1-.442c-1.6.408-3.23.782-4.658,1.088v-4.08h4.794a12.089,12.089,0,0,0,4.624,7.106Zm6.528-7.208-.374-.1a18.826,18.826,0,0,1-1.19,2.754c-.238.408-.476.442-.918.238a8.031,8.031,0,0,1-3.6-4.556h5.3c.476,0,.816-.17.884-.544-1.292-1.122-3.4-2.686-3.4-2.686l-1.87,2.278H224.5a18,18,0,0,1-.544-4.726c1.394-.136,2.686-.272,3.774-.442a2.173,2.173,0,0,0,2.074.136l-3.434-3.6a56.11,56.11,0,0,1-10.4,3.332l-3.094-1.462v11.322c0,.68-.17.986-1.258,1.564l1.7,3.706c.136-.068.238-.136.374-.2V3.026h.544c1.5,0,3.06-.816,3.06-1.156V.782h7.412V2.754h.646a5.8,5.8,0,0,0,3.094-.952V-9.078a2.512,2.512,0,0,0,1.326-.68l-2.38-1.8c1.258.544,2.992.85,3.842-.374.51-.748.2-1.394-.612-2.38Zm10.54-10.71a9.3,9.3,0,0,1,1.394,4.42c3.06,2.822,7.31-2.89-1.122-4.556Zm13.8,4.658v3.3H253.47v-3.3Zm4.42,0v3.3H257.89v-3.3Zm4.488,0v3.3H262.31v-3.3Zm-1.836,7.582v-3.332h1.836v3.332Zm-4.42-3.332h1.768v3.332H257.89Zm-4.42,0h1.768v3.332H253.47Zm-7.31,5.1a25.766,25.766,0,0,0,2.89-5.2,5.22,5.22,0,0,0,1.02-.17v5.678h.612c1.734,0,2.788-.612,2.788-.85v-.238h10.676v.51h.612a8.435,8.435,0,0,0,1.768-.2l-1.36,1.666H248.914l.272.952H269.11c.476,0,.85-.17.918-.544-.918-.816-2.278-1.836-2.856-2.278.34-.17.544-.306.544-.374V-23.7a1.964,1.964,0,0,0,1.258-.612l-3.3-2.448-1.666,1.87h-1.7v-2.72c.68-.136.918-.408.952-.782l-3.6-.374v3.876H257.89v-2.788c.578-.1.816-.374.85-.714l-3.5-.374v3.876h-1.394L250.07-26.35v5.712l-3.026-2.924-2.074,2.006h-6.63l.306.986h6.528a36.2,36.2,0,0,1-7.378,13.5l.374.272a26.207,26.207,0,0,0,4.352-3.5V2.992h.646c1.8,0,2.992-.918,2.992-1.19V-12.784a11.846,11.846,0,0,1,1.394,3.978c2.584,2.21,5.474-2.686-1.394-5.338Zm8.6,8.7V-9.52h7.82v3.638Zm10,6.324H260.78a28.978,28.978,0,0,0,3.6-2.992c.714.068,1.156-.17,1.326-.578L263.3-3.944a4.708,4.708,0,0,0,2.856-.714V-9.316a1.644,1.644,0,0,0,1.224-.578l-3.264-2.448-1.666,1.87H255.1l-3.808-1.5v8.5h.612a7.288,7.288,0,0,0,1.632-.17,9.476,9.476,0,0,1,.612,3.3c2.346,2.312,5.882-1.666.51-3.774a.311.311,0,0,0,.1-.17V-4.9h7.82v.714l-1.19-.408a43.849,43.849,0,0,1-1.7,5.032H247.554l.272.952h21.862c.476,0,.782-.17.884-.544C269.178-.408,266.8-2.176,266.8-2.176Z" transform="translate(4251 546)" fill="#072a2e"/>
    <path id="路径_18" data-name="路径 18" d="M17.559-11.982H13.34v.684c1.436.117,1.523.361,1.279,1.436-.283,1.24-1.143,4.326-1.836,6.641h-.059c-1.006-2.92-2.021-5.762-3.008-8.633H8.9C8.018-9,7.08-6.123,6.182-3.262H6.143C5.459-5.557,4.824-7.783,4.18-10.078c-.244-.9-.215-1.084,1.123-1.221v-.684H.342v.684c1.055.117,1.357.322,1.8,1.738C3.145-6.279,4.082-3.115,5.059.176h.859C6.8-2.6,7.764-5.4,8.721-8.359H8.76c.977,2.822,2,5.742,2.959,8.535H12.6c1.5-5.156,2.578-8.4,3-9.678.508-1.455.742-1.641,1.963-1.8Zm11.9,8.838A5.7,5.7,0,0,1,28.5-1.377c-.4.459-1.006.576-2.08.576a4.3,4.3,0,0,1-1.738-.215c-.342-.186-.469-.605-.469-1.465V-5.742h1.426c1.543,0,1.719.078,1.963,1.426H28.3v-3.7h-.693c-.244,1.26-.42,1.377-1.963,1.377H24.217v-3.916c0-.605.068-.645.7-.645h1.123c1.113,0,1.621.166,1.855.5a4.179,4.179,0,0,1,.645,1.543l.723-.1c-.088-1.064-.166-2.383-.186-2.725H20.643v.684c1.338.1,1.514.2,1.514,1.758v7.1c0,1.523-.176,1.621-1.738,1.758V0h9.1c.166-.537.537-2.3.645-3.018Zm5.574-9.932-1.895.557c.1.3.479,2.676.752,4.5l.684-.3c.225-1.484.557-4.082.625-4.639Zm3.719,1.094v.684c1.338.1,1.494.215,1.494,1.758v7.1c0,1.543-.176,1.641-1.66,1.758V0h4.463a8.437,8.437,0,0,0,5.42-1.543,5.809,5.809,0,0,0,2.246-4.922A5.405,5.405,0,0,0,49.174-10.4c-1.182-1.143-2.9-1.582-5.205-1.582Zm3.574,2c0-.576.049-.84.205-1a2.152,2.152,0,0,1,1.24-.244,4.28,4.28,0,0,1,2.939.977,4.945,4.945,0,0,1,1.66,4.082c0,3.184-1.621,5.342-4.365,5.342-1.279,0-1.68-.42-1.68-1.719ZM68.77-3.223a5.952,5.952,0,0,1-.957,1.846A2.343,2.343,0,0,1,65.928-.8,3.8,3.8,0,0,1,64.434-1c-.381-.166-.469-.527-.469-1.426V-9.541c0-1.543.166-1.66,1.6-1.758v-.684H60.313v.684c1.416.1,1.6.215,1.6,1.758v7.1c0,1.523-.186,1.641-1.709,1.758V0h8.6c.156-.518.537-2.344.664-3.057Zm9.705-9.014a6.031,6.031,0,0,0-6.143,6.3A5.9,5.9,0,0,0,78.27.264c3.34,0,6.064-2.383,6.064-6.387a5.826,5.826,0,0,0-5.84-6.113Zm-.342.771c2.139,0,3.779,2.129,3.779,5.85,0,3.4-1.5,5.078-3.3,5.078-2.363,0-3.877-2.578-3.877-5.82,0-3.2,1.533-5.107,3.379-5.107Zm21.414-.518H95.289v.684c1.465.156,1.523.361,1.143,1.523-.5,1.572-1.523,4.316-2.5,6.934h-.039c-.859-2.236-2.217-5.937-2.744-7.383-.254-.752-.234-.937,1.045-1.074l.02-.684h-5.02v.684c1.094.1,1.4.322,1.914,1.621.859,2.178,2.48,6.494,3.7,9.854h.84C95.055-3.6,96.832-8.018,97.33-9.316c.723-1.66,1.025-1.846,2.217-1.982ZM111.41-3.145a5.7,5.7,0,0,1-.957,1.768c-.4.459-1.006.576-2.08.576a4.3,4.3,0,0,1-1.738-.215c-.342-.186-.469-.605-.469-1.465V-5.742h1.426c1.543,0,1.719.078,1.963,1.426h.693v-3.7h-.693c-.244,1.26-.42,1.377-1.963,1.377h-1.426v-3.916c0-.605.068-.645.7-.645h1.123c1.113,0,1.621.166,1.855.5a4.179,4.179,0,0,1,.645,1.543l.723-.1c-.088-1.064-.166-2.383-.186-2.725h-8.437v.684c1.338.1,1.514.2,1.514,1.758v7.1c0,1.523-.176,1.621-1.738,1.758V0h9.1c.166-.537.537-2.3.645-3.018Zm20.631-8.838h-4.2v.684c1.377.137,1.377.342,1.055,1.123-.459,1.133-1.4,2.832-1.934,3.9-.742-1.318-1.523-2.705-2.187-4.023-.332-.635-.381-.84.84-1v-.684H120.8v.684c1.016.117,1.3.322,1.982,1.475C123.8-8,124.463-6.816,125.039-5.7a1.779,1.779,0,0,1,.3,1.064v2.2c0,1.543-.166,1.641-1.738,1.758V0h5.615V-.684c-1.66-.117-1.8-.234-1.8-1.758v-2.4a2.137,2.137,0,0,1,.313-1.221c.869-1.68,1.406-2.578,2.129-3.74.654-1.133,1-1.377,2.178-1.494Zm8.445-.254a6.031,6.031,0,0,0-6.143,6.3,5.9,5.9,0,0,0,5.938,6.2c3.34,0,6.064-2.383,6.064-6.387a5.826,5.826,0,0,0-5.84-6.113Zm-.342.771c2.139,0,3.779,2.129,3.779,5.85,0,3.4-1.5,5.078-3.3,5.078-2.363,0-3.877-2.578-3.877-5.82,0-3.2,1.533-5.107,3.379-5.107Zm21.98-.518h-4.58v.684c1.289.078,1.709.342,1.807,1a18.622,18.622,0,0,1,.156,2.783V-5.8c0,3.076-.937,4.844-3.174,4.844-2.021,0-3.086-1.5-3.086-4.385V-9.482c0-1.6.166-1.719,1.543-1.816v-.684h-5.186v.684c1.406.1,1.563.215,1.563,1.816V-5c0,2.158.5,3.516,1.543,4.336a4.775,4.775,0,0,0,3.076.928,4.5,4.5,0,0,0,3.3-1.3c1.045-1.1,1.357-2.686,1.357-4.746V-7.52a22.993,22.993,0,0,1,.127-2.764c.1-.693.518-.957,1.553-1.016ZM176.242-.664l-.176-.654a2.406,2.406,0,0,1-1.025.254c-.42,0-1.035-.215-1.035-1.66V-7.275h1.8a.712.712,0,0,0,.137-.928h-1.934v-2.539l-.283-.1-1.7,1.357V-8.2h-.762l-.518.684.078.244h1.2v5.2c0,1.6.762,2.3,2.041,2.3a2.59,2.59,0,0,0,.8-.225Zm6.844-7.754A4.281,4.281,0,0,0,178.877-3.9,4.041,4.041,0,0,0,183.066.225a4.136,4.136,0,0,0,4.092-4.463,4.023,4.023,0,0,0-4.053-4.18Zm-.225.742c1.338,0,2.061,1.572,2.061,3.916,0,2.578-.8,3.242-1.68,3.242-1.3,0-2.139-1.738-2.139-4.023,0-2.08.859-3.135,1.738-3.135Zm20.191,1.133a2.872,2.872,0,0,0,2.568-2.715,2.466,2.466,0,0,0-1.045-2.1,5.1,5.1,0,0,0-2.9-.625h-5.059v.684c1.357.1,1.475.234,1.475,1.738v7.119c0,1.523-.137,1.621-1.611,1.758V0h4.395a7.539,7.539,0,0,0,3.7-.781,3.108,3.108,0,0,0,1.758-2.8c0-1.777-1.4-2.617-3.281-2.9Zm-2.92-.215V-10.2c0-.469.068-.7.225-.82a1.41,1.41,0,0,1,.9-.205,2.01,2.01,0,0,1,2.158,2.236c0,1.543-.84,2.227-2.617,2.227Zm0,.781h.605c2.08,0,3.281.82,3.281,2.6A2.363,2.363,0,0,1,201.539-.8c-1.084.02-1.406-.361-1.406-1.641ZM218.7-3.145a5.7,5.7,0,0,1-.957,1.768c-.4.459-1.006.576-2.08.576a4.3,4.3,0,0,1-1.738-.215c-.342-.186-.469-.605-.469-1.465V-5.742h1.426c1.543,0,1.719.078,1.963,1.426h.693v-3.7h-.693c-.244,1.26-.42,1.377-1.963,1.377h-1.426v-3.916c0-.605.068-.645.7-.645h1.123c1.113,0,1.621.166,1.855.5a4.179,4.179,0,0,1,.645,1.543l.723-.1c-.088-1.064-.166-2.383-.186-2.725h-8.437v.684c1.338.1,1.514.2,1.514,1.758v7.1c0,1.523-.176,1.621-1.738,1.758V0h9.1c.166-.537.537-2.3.645-3.018Zm16.012-9.092a6.031,6.031,0,0,0-6.143,6.3A5.9,5.9,0,0,0,234.5.264c3.34,0,6.064-2.383,6.064-6.387a5.826,5.826,0,0,0-5.84-6.113Zm-.342.771c2.139,0,3.779,2.129,3.779,5.85,0,3.4-1.5,5.078-3.3,5.078-2.363,0-3.877-2.578-3.877-5.82,0-3.2,1.533-5.107,3.379-5.107Zm21.98-.518h-4.58v.684c1.289.078,1.709.342,1.807,1a18.622,18.622,0,0,1,.156,2.783V-5.8c0,3.076-.937,4.844-3.174,4.844-2.021,0-3.086-1.5-3.086-4.385V-9.482c0-1.6.166-1.719,1.543-1.816v-.684h-5.186v.684c1.406.1,1.563.215,1.563,1.816V-5c0,2.158.5,3.516,1.543,4.336a4.775,4.775,0,0,0,3.076.928,4.5,4.5,0,0,0,3.3-1.3c1.045-1.1,1.357-2.686,1.357-4.746V-7.52a22.993,22.993,0,0,1,.127-2.764c.1-.693.518-.957,1.553-1.016Zm14.1,11.523a2.8,2.8,0,0,1-1.211-.82,11.189,11.189,0,0,1-1.387-1.9c-.557-.84-1.26-2.08-1.562-2.617a3.262,3.262,0,0,0,2.3-3.1,2.78,2.78,0,0,0-1.26-2.441,5.328,5.328,0,0,0-3.076-.645h-4.9v.684c1.357.1,1.543.215,1.543,1.719v7.139c0,1.523-.205,1.641-1.621,1.758V0h5.2V-.684c-1.4-.117-1.562-.234-1.562-1.758V-5.156h.508a1.283,1.283,0,0,1,1.318.732c.518.928,1.094,2.021,1.641,2.822.752,1.182,1.475,1.66,3.359,1.738.215,0,.439.02.615.02Zm-7.539-5.459v-4.365c0-.459.039-.654.186-.752.117-.127.381-.205.859-.205a2.342,2.342,0,0,1,2.422,2.617,2.582,2.582,0,0,1-.967,2.207,2.684,2.684,0,0,1-1.8.5ZM296-11.982h-4.219v.684c1.436.117,1.523.361,1.279,1.436-.283,1.24-1.143,4.326-1.836,6.641h-.059c-1.006-2.92-2.021-5.762-3.008-8.633h-.82c-.879,2.852-1.816,5.732-2.715,8.594h-.039c-.684-2.295-1.318-4.521-1.963-6.816-.244-.9-.215-1.084,1.123-1.221v-.684h-4.961v.684c1.055.117,1.357.322,1.8,1.738,1.006,3.281,1.943,6.445,2.92,9.736h.859c.879-2.773,1.846-5.576,2.8-8.535h.039c.977,2.822,2,5.742,2.959,8.535h.879c1.5-5.156,2.578-8.4,3-9.678.508-1.455.742-1.641,1.963-1.8Zm11.9,8.838a5.7,5.7,0,0,1-.957,1.768c-.4.459-1.006.576-2.08.576a4.3,4.3,0,0,1-1.738-.215c-.342-.186-.469-.605-.469-1.465V-5.742h1.426c1.543,0,1.719.078,1.963,1.426h.693v-3.7h-.693c-.244,1.26-.42,1.377-1.963,1.377h-1.426v-3.916c0-.605.068-.645.7-.645h1.123c1.113,0,1.621.166,1.855.5a4.179,4.179,0,0,1,.645,1.543l.723-.1c-.088-1.064-.166-2.383-.186-2.725h-8.437v.684c1.338.1,1.514.2,1.514,1.758v7.1c0,1.523-.176,1.621-1.738,1.758V0h9.1c.166-.537.537-2.3.645-3.018Zm3.777-8.838v.684c1.338.1,1.494.215,1.494,1.758v7.1c0,1.543-.176,1.641-1.66,1.758V0h4.463a8.437,8.437,0,0,0,5.42-1.543,5.809,5.809,0,0,0,2.246-4.922A5.405,5.405,0,0,0,322.1-10.4c-1.182-1.143-2.9-1.582-5.205-1.582Zm3.574,2c0-.576.049-.84.205-1a2.152,2.152,0,0,1,1.24-.244,4.28,4.28,0,0,1,2.939.977,4.945,4.945,0,0,1,1.66,4.082c0,3.184-1.621,5.342-4.365,5.342-1.279,0-1.68-.42-1.68-1.719Zm11.834-2v.684c1.338.1,1.494.215,1.494,1.758v7.1c0,1.543-.176,1.641-1.66,1.758V0h4.463a8.437,8.437,0,0,0,5.42-1.543,5.809,5.809,0,0,0,2.246-4.922,5.405,5.405,0,0,0-1.543-3.936c-1.182-1.143-2.9-1.582-5.205-1.582Zm3.574,2c0-.576.049-.84.205-1a2.152,2.152,0,0,1,1.24-.244,4.28,4.28,0,0,1,2.939.977,4.945,4.945,0,0,1,1.66,4.082c0,3.184-1.621,5.342-4.365,5.342-1.279,0-1.68-.42-1.68-1.719ZM347.631,0V-.684c-1.4-.117-1.562-.215-1.562-1.758v-7.1c0-1.543.166-1.66,1.563-1.758v-.684h-5.2v.684c1.4.1,1.582.215,1.582,1.758v7.1c0,1.523-.186,1.641-1.582,1.758V0Zm15.857-11.982H359v.664c1.26.078,1.68.342,1.777,1.074a26.625,26.625,0,0,1,.137,3.027v3.76h-.059l-7-8.525h-3.115v.664a1.972,1.972,0,0,1,1.563.654c.332.439.352.664.352,1.9v3.936a22.513,22.513,0,0,1-.156,3.027c-.078.781-.518,1.055-1.543,1.113V0h4.5V-.684c-1.26-.059-1.66-.332-1.738-1.152a26.615,26.615,0,0,1-.137-2.988V-9.1h.039L360.988.156h.869V-7.217a23.118,23.118,0,0,1,.137-3.047c.1-.732.5-1,1.494-1.055Zm14.8,6.26h-5.1v.684c1.836.156,1.943.283,1.943,1.543v1.641c0,.635-.166.9-.469,1.074a2.53,2.53,0,0,1-1.191.264c-3.105,0-4.521-2.881-4.521-5.645,0-3.34,1.934-5.322,4.3-5.322a3.161,3.161,0,0,1,3.359,2.861l.7-.137c-.117-1.357-.225-2.344-.283-2.979a13.909,13.909,0,0,0-3.457-.518c-3.682,0-7.021,2.139-7.021,6.4,0,3.643,2.6,6.123,6.7,6.123a18.151,18.151,0,0,0,4.082-.645,9.829,9.829,0,0,1-.117-1.758v-1.5c0-1.162.1-1.221,1.074-1.4Zm21.07,0h-5.1v.684c1.836.156,1.943.283,1.943,1.543v1.641c0,.635-.166.9-.469,1.074a2.53,2.53,0,0,1-1.191.264c-3.105,0-4.521-2.881-4.521-5.645,0-3.34,1.934-5.322,4.3-5.322a3.161,3.161,0,0,1,3.359,2.861l.7-.137c-.117-1.357-.225-2.344-.283-2.979a13.909,13.909,0,0,0-3.457-.518c-3.682,0-7.021,2.139-7.021,6.4,0,3.643,2.6,6.123,6.7,6.123A18.151,18.151,0,0,0,398.4-.381a9.829,9.829,0,0,1-.117-1.758v-1.5c0-1.162.1-1.221,1.074-1.4Zm15.555-6.26h-4.58v.684c1.289.078,1.709.342,1.807,1A18.622,18.622,0,0,1,412.3-7.52V-5.8c0,3.076-.937,4.844-3.174,4.844-2.021,0-3.086-1.5-3.086-4.385V-9.482c0-1.6.166-1.719,1.543-1.816v-.684H402.4v.684c1.406.1,1.563.215,1.563,1.816V-5c0,2.158.5,3.516,1.543,4.336a4.775,4.775,0,0,0,3.076.928,4.5,4.5,0,0,0,3.3-1.3c1.045-1.1,1.357-2.686,1.357-4.746V-7.52a22.993,22.993,0,0,1,.127-2.764c.1-.693.518-.957,1.553-1.016ZM426.74-3.145a5.7,5.7,0,0,1-.957,1.768c-.4.459-1.006.576-2.08.576a4.3,4.3,0,0,1-1.738-.215c-.342-.186-.469-.605-.469-1.465V-5.742h1.426c1.543,0,1.719.078,1.963,1.426h.693v-3.7h-.693c-.244,1.26-.42,1.377-1.963,1.377H421.5v-3.916c0-.605.068-.645.7-.645h1.123c1.113,0,1.621.166,1.855.5a4.179,4.179,0,0,1,.645,1.543l.723-.1c-.088-1.064-.166-2.383-.186-2.725h-8.437v.684c1.338.1,1.514.2,1.514,1.758v7.1c0,1.523-.176,1.621-1.738,1.758V0h9.1c.166-.537.537-2.3.645-3.018ZM437.656-9.18c-.156-1.182-.283-1.963-.361-2.617a7.774,7.774,0,0,0-2.441-.459c-2.52,0-4.014,1.533-4.014,3.457,0,1.895,1.514,2.881,3.115,3.682,1.357.713,2.266,1.4,2.266,2.578a1.867,1.867,0,0,1-1.963,2.021c-1.826,0-2.725-1.943-3.037-3.066l-.723.205a20.362,20.362,0,0,0,.537,3A6.609,6.609,0,0,0,432.08,0a6.655,6.655,0,0,0,1.8.264c2.578,0,4.3-1.582,4.3-3.623,0-1.943-1.494-2.92-3.193-3.76-1.523-.762-2.3-1.377-2.3-2.52a1.789,1.789,0,0,1,1.885-1.846c1.514,0,2.031,1.289,2.393,2.441Zm14,.176c-.059-1.133-.156-2.656-.176-3.457h-.5a1.013,1.013,0,0,1-.967.479H442.9a.952.952,0,0,1-1-.479h-.479c-.039.977-.146,2.266-.225,3.525h.723a5.043,5.043,0,0,1,.645-1.748c.254-.332.6-.518,1.953-.518h.879v8.76c0,1.5-.156,1.641-1.758,1.758V0H449.3V-.684c-1.66-.117-1.826-.254-1.826-1.758V-11.2H448.5c1.143,0,1.475.117,1.8.479a4.023,4.023,0,0,1,.664,1.787Z" transform="translate(4025 584)" fill="#072a2e"/>
  </g>
</svg>
